# Blender 4.4.1
# www.blender.org
mtllib player.mtl
o 立方体
v -0.263936 -0.273592 0.168688
v -0.127939 0.207324 0.074390
v -0.263936 -0.273592 -0.140906
v -0.127939 0.207324 -0.046608
v 0.265518 -0.273592 0.168688
v 0.129550 0.207324 0.074390
v 0.265518 -0.273592 -0.140906
v 0.129550 0.207324 -0.046608
v 0.000858 -0.273592 -0.140906
v 0.000858 0.312245 -0.078390
v 0.000858 -0.273592 0.168688
v 0.000858 0.204342 0.106172
v -0.131539 -0.273592 -0.140906
v -0.063551 0.204342 0.106172
v -0.063551 0.269464 -0.078390
v -0.131539 -0.273592 0.168688
v -0.031356 0.312245 -0.078390
v -0.065341 -0.273592 0.168688
v -0.065341 -0.273592 -0.140906
v -0.031356 0.204342 0.106172
v 0.065194 0.269464 -0.078390
v 0.133188 -0.273592 0.168688
v 0.133188 -0.273592 -0.140906
v 0.065194 0.204342 0.106172
v 0.067023 -0.273592 -0.140906
v 0.033016 0.204342 0.106172
v 0.033016 0.312245 -0.078390
v 0.067023 -0.273592 0.168688
v -0.263936 -0.350565 -0.140906
v -0.263936 -0.350565 0.168688
v -0.131539 -0.350565 -0.140906
v 0.265518 -0.350565 0.168688
v 0.265518 -0.350565 -0.140906
v 0.133188 -0.350565 0.168688
v -0.065341 -0.350565 -0.140906
v -0.131539 -0.350565 0.168688
v -0.065341 -0.350565 0.168688
v 0.067023 -0.350565 0.168688
v 0.133188 -0.350565 -0.140906
v 0.067023 -0.350565 -0.140906
v 0.133188 -0.273592 0.291185
v 0.265518 -0.273592 0.291185
v -0.263936 -0.273592 0.291185
v -0.131539 -0.273592 0.291185
v -0.065341 -0.273592 0.291185
v 0.067023 -0.273592 0.291185
v 0.133188 -0.350565 0.291185
v 0.265518 -0.350565 0.291185
v -0.263936 -0.350565 0.291185
v -0.131539 -0.350565 0.291185
v -0.065341 -0.350565 0.291185
v 0.067023 -0.350565 0.291185
v -0.263936 -0.273592 0.013891
v -0.127939 0.207324 0.013891
v 0.265518 -0.273592 0.013891
v 0.129550 0.207324 0.013891
v 0.000858 0.312245 0.013891
v 0.000858 -0.273592 0.013891
v -0.063551 0.269464 0.013891
v -0.031356 0.312245 0.013891
v -0.065341 -0.273592 0.013891
v 0.065194 0.269464 0.013891
v 0.067023 -0.273592 0.013891
v 0.033016 0.312245 0.013891
v -0.263936 -0.350565 0.013891
v 0.265518 -0.350565 0.013891
v -0.131539 -0.350565 0.013891
v -0.065341 -0.350565 0.013891
v 0.133188 -0.350565 0.013891
v 0.067023 -0.350565 0.013891
v -0.127939 0.207324 -0.016358
v 0.265518 -0.273592 -0.063507
v 0.265518 -0.350565 -0.063507
v -0.263936 -0.273592 -0.063507
v 0.129550 0.207324 -0.016358
v 0.000858 0.312245 -0.032249
v 0.000858 -0.273592 -0.063507
v -0.063551 0.269464 -0.032249
v -0.031356 0.312245 -0.032249
v -0.065341 -0.273592 -0.063507
v 0.065194 0.269464 -0.032249
v 0.067023 -0.273592 -0.063507
v 0.033016 0.312245 -0.032249
v -0.263936 -0.350565 -0.063507
v -0.131539 -0.350565 -0.063507
v -0.065341 -0.350565 -0.063507
v 0.133188 -0.350565 -0.063507
v 0.067023 -0.350565 -0.063507
v -0.263936 -0.273592 0.091290
v 0.129550 0.207324 0.044140
v 0.000858 0.281126 0.060031
v 0.000858 -0.273592 0.091290
v -0.063551 0.269464 0.060031
v -0.031356 0.281126 0.060031
v -0.065341 -0.273592 0.091290
v 0.065194 0.269464 0.060031
v 0.067023 -0.273592 0.091290
v 0.033016 0.281126 0.060031
v -0.263936 -0.350565 0.091290
v -0.131539 -0.350565 0.091290
v -0.065341 -0.350565 0.091290
v 0.133188 -0.350565 0.091290
v 0.067023 -0.350565 0.091290
v -0.127939 0.207324 0.044140
v 0.265518 -0.273592 0.091290
v 0.265518 -0.350565 0.091290
v -0.195938 -0.033134 0.121539
v -0.195938 -0.033134 -0.093757
v 0.197534 -0.033134 -0.093757
v 0.197534 -0.033134 0.121539
v 0.000858 -0.034625 0.137430
v 0.000858 0.019327 -0.109648
v -0.097545 -0.002064 -0.109648
v -0.097545 -0.034625 0.137430
v -0.048349 -0.034625 0.137430
v -0.048349 0.019327 -0.109648
v 0.099191 -0.034625 0.137430
v 0.099191 -0.002064 -0.109648
v 0.050019 0.019327 -0.109648
v 0.050019 -0.034625 0.137430
v 0.197534 -0.033134 0.013891
v -0.195938 -0.033134 0.013891
v 0.197534 -0.033134 -0.039933
v -0.195938 -0.033134 -0.039933
v -0.195938 -0.033134 0.067715
v 0.197534 -0.033134 0.067715
v -0.161938 0.087095 0.097964
v -0.161938 0.087095 -0.070182
v 0.163542 0.087095 -0.070182
v 0.163542 0.087095 0.097964
v 0.000858 0.084859 0.121801
v 0.000858 0.165786 -0.094019
v -0.080548 0.133700 -0.094019
v -0.080548 0.084859 0.121801
v -0.039852 0.084859 0.121801
v -0.039853 0.165786 -0.094019
v 0.082192 0.084859 0.121801
v 0.082192 0.133700 -0.094019
v 0.041518 0.165786 -0.094019
v 0.041518 0.084859 0.121801
v 0.163542 0.087095 0.013891
v -0.161939 0.087095 0.013891
v 0.163542 0.087095 -0.028146
v -0.161939 0.087095 -0.028146
v -0.161939 0.087095 0.055928
v 0.163542 0.087095 0.055928
v -0.294388 -0.184464 0.097964
v -0.323102 -0.036157 0.074390
v 0.323616 -0.040920 0.044140
v 0.323616 -0.040920 0.074390
v -0.323102 -0.036157 0.044140
v -0.323102 -0.036157 0.013891
v 0.323616 -0.040920 -0.016358
v 0.323616 -0.040920 0.013891
v -0.323102 -0.036157 -0.016358
v 0.286211 -0.187265 0.097964
v 0.286211 -0.187265 0.013891
v -0.294388 -0.184464 0.013891
v 0.286211 -0.187265 -0.028146
v -0.294388 -0.184464 -0.028146
v -0.294388 -0.184464 0.055928
v 0.286211 -0.187265 0.055928
v 0.266679 0.052776 0.044140
v 0.266679 0.052776 0.074390
v 0.211430 -0.071061 0.013891
v 0.211430 -0.071061 0.055928
v 0.266679 0.052776 0.013891
v 0.211430 -0.071061 0.097964
v 0.266679 0.052776 -0.016358
v 0.211430 -0.071061 -0.028146
v -0.212897 -0.072862 0.097964
v -0.260754 0.054022 0.074390
v -0.260754 0.054022 0.044140
v -0.212897 -0.072862 0.055928
v -0.260754 0.054022 -0.016358
v -0.260754 0.054022 0.013891
v -0.212897 -0.072862 0.013891
v -0.212897 -0.072862 -0.028146
vn -0.9623 0.2721 -0.0000
vn 0.4171 0.2870 -0.8623
vn -0.8225 0.5687 -0.0000
vn -0.2651 0.2572 0.9293
vn -1.0000 -0.0000 -0.0000
vn -0.3519 0.5411 0.7638
vn -0.0000 0.5151 0.8571
vn -0.0000 -1.0000 -0.0000
vn -0.0000 0.1297 0.9916
vn -0.0000 0.1061 -0.9944
vn -0.4169 0.2870 -0.8624
vn 1.0000 -0.0000 -0.0000
vn -0.1834 0.5063 0.8426
vn -0.0994 0.1261 -0.9870
vn -0.0000 -0.0000 -1.0000
vn 0.2652 0.2572 0.9293
vn 0.6946 0.7194 -0.0000
vn 0.0995 0.1261 -0.9870
vn -0.0000 0.5781 0.8160
vn -0.0000 1.0000 -0.0000
vn -0.0000 -0.0000 1.0000
vn 0.7992 0.6011 -0.0000
vn -0.7990 0.6013 -0.0000
vn -0.6944 0.7196 -0.0000
vn 0.8076 -0.5897 -0.0000
vn 0.9623 0.2721 -0.0000
vn -0.8409 -0.5412 -0.0000
vn -0.1683 0.1229 0.9780
vn 0.3407 0.9402 -0.0000
vn -0.0000 0.8291 0.5591
vn -0.7405 0.5572 0.3758
vn 0.8546 0.5193 -0.0000
vn -0.0000 0.1144 -0.9934
vn -0.0000 0.1924 0.9813
vn -0.0000 0.1924 -0.9813
vn 0.0525 0.1207 -0.9913
vn 0.1518 0.2313 0.9610
vn -0.0525 0.1207 -0.9913
vn -0.2307 0.2496 -0.9404
vn -0.1517 0.2313 0.9610
vn 0.2308 0.2497 -0.9404
vn 0.9689 -0.2476 -0.0000
vn -0.9818 -0.1901 -0.0000
vn 0.0891 0.0573 -0.9944
vn -0.0865 0.0598 -0.9945
vn 0.1767 0.1074 0.9784
vn 0.7480 0.6637 -0.0000
vn 0.2976 0.2640 0.9175
vn -0.9571 -0.2898 -0.0000
vn 0.1260 0.0381 -0.9913
vn -0.1640 0.1421 -0.9762
vn 0.9528 -0.3035 -0.0000
vn -0.7558 0.6548 -0.0000
vn -0.2571 0.0819 0.9629
vn 0.5593 0.1636 -0.8127
vn -0.4290 0.1769 0.8858
vn -0.5591 0.1636 -0.8128
vn -0.1509 0.1135 -0.9820
vn 0.4292 0.1769 0.8857
vn 0.3521 0.5411 0.7637
vn 0.1510 0.1136 -0.9820
vn 0.1835 0.5063 0.8426
vn -0.1701 0.1176 0.9784
vn 0.7406 0.5571 0.3757
vn -0.3406 0.9402 -0.0000
vn 0.0473 0.1087 -0.9929
vn 0.1555 0.1498 0.9764
vn -0.0473 0.1087 -0.9930
vn -0.1999 0.1367 -0.9702
vn -0.1554 0.1498 0.9764
vn 0.2000 0.1367 -0.9702
vn 0.0873 0.1107 -0.9900
vn 0.2733 0.1629 0.9480
vn -0.0873 0.1107 -0.9900
vn -0.3564 0.1508 -0.9221
vn -0.2732 0.1629 0.9481
vn 0.3566 0.1508 -0.9220
vn 0.0898 0.0546 -0.9945
vn -0.0856 0.0625 -0.9944
vn 0.1752 0.1128 0.9780
vn 0.2457 0.0744 0.9665
vn 0.1585 0.1406 -0.9773
vn -0.1322 0.0421 -0.9903
vn -0.3070 0.2660 0.9138
vt 0.438245 0.191857
vt 0.499934 0.253546
vt 0.438245 0.253546
vt 0.438245 0.438629
vt 0.499934 0.500303
vt 0.438245 0.500303
vt 0.746691 0.561992
vt 0.746691 0.623681
vt 0.746690 0.623681
vt 0.438245 0.932111
vt 0.499934 0.993816
vt 0.438245 0.993816
vt 0.160667 0.500303
vt 0.160667 0.561992
vt 0.684986 0.685370
vt 0.746691 0.747059
vt 0.684986 0.747059
vt 0.623281 0.685370
vt 0.592444 0.747059
vt 0.592444 0.685370
vt 0.129830 0.685370
vt 0.098978 0.747059
vt 0.098978 0.685370
vt 0.499934 0.839570
vt 0.438245 0.870407
vt 0.438245 0.839570
vt 0.499934 0.346103
vt 0.438245 0.376955
vt 0.438245 0.346103
vt 0.438245 0.315251
vt 0.098978 0.685370
vt 0.654134 0.747059
vt 0.654134 0.685370
vt 0.438245 0.901259
vt 0.499934 0.932111
vt 0.499934 0.901259
vt 0.623281 0.747059
vt 0.499934 0.315251
vt 0.253177 0.315251
vt 0.253177 0.253546
vt 0.499934 0.747059
vt 0.438245 0.808733
vt 0.438245 0.747059
vt 0.561608 0.685370
vt 0.499934 0.685370
vt 0.253177 0.500303
vt 0.253177 0.438629
vt 0.253177 0.438629
vt 0.438245 0.407792
vt 0.499934 0.438629
vt 0.499934 0.407792
vt 0.160667 0.685370
vt 0.129830 0.747059
vt 0.499934 0.808733
vt 0.561608 0.747059
vt 0.253177 0.685370
vt 0.191504 0.747059
vt 0.191504 0.685370
vt 0.068126 0.685370
vt 0.006421 0.747059
vt 0.006421 0.685370
vt 0.068126 0.747059
vt 0.160667 0.747059
vt 0.160667 0.685370
vt 0.253177 0.808733
vt 0.253177 0.839570
vt 0.253177 0.808733
vt 0.160667 0.747059
vt 0.253177 0.346103
vt 0.253177 0.315251
vt 0.006421 0.747059
vt 0.253177 0.407792
vt 0.253177 0.993816
vt 0.253177 0.932111
vt 0.253177 0.191857
vt 0.253177 0.191857
vt 0.253177 0.747059
vt 0.253177 0.685370
vt 0.253177 0.901259
vt 0.253177 0.932111
vt 0.253177 0.747059
vt 0.253177 0.747059
vt 0.098978 0.747059
vt 0.098978 0.747059
vt 0.191504 0.747059
vt 0.253177 0.006790
vt 0.253177 0.006790
vt 0.253177 0.623681
vt 0.253177 0.561992
vt 0.253177 0.130168
vt 0.253177 0.068479
vt 0.253177 0.068479
vt 0.191504 0.561992
vt 0.160667 0.623681
vt 0.098978 0.561992
vt 0.068126 0.623681
vt 0.068126 0.561992
vt 0.006421 0.623681
vt 0.006421 0.561992
vt 0.191504 0.623681
vt 0.592444 0.561992
vt 0.561608 0.623681
vt 0.561608 0.561992
vt 0.129830 0.623681
vt 0.129830 0.561992
vt 0.499934 0.561992
vt 0.499934 0.623681
vt 0.654134 0.561992
vt 0.623281 0.623681
vt 0.623281 0.561992
vt 0.684986 0.623681
vt 0.654134 0.623681
vt 0.098978 0.623681
vt 0.098978 0.561992
vt 0.592445 0.623681
vt 0.746691 0.561992
vt 0.684986 0.561992
vt 0.438245 0.068479
vt 0.438245 0.006790
vt 0.438245 0.068479
vt 0.746690 0.685370
vt 0.438245 0.561992
vt 0.746691 0.500303
vt 0.684986 0.500303
vt 0.623281 0.500303
vt 0.592445 0.500303
vt 0.129830 0.500303
vt 0.098978 0.500303
vt 0.654134 0.500303
vt 0.561608 0.500303
vt 0.191504 0.500303
vt 0.068126 0.500303
vt 0.006421 0.500303
vt 0.253177 0.130168
vt 0.438245 0.685370
vt 0.438245 0.623681
vt 0.438245 0.685370
vt 0.438245 0.993816
vt 0.499934 0.993816
vt 0.438245 0.993816
vt 0.098978 0.623681
vt 0.746691 0.685370
vt 0.499934 0.747059
vt 0.376556 0.685370
vt 0.376556 0.006790
vt 0.376556 0.191857
vt 0.376556 0.500303
vt 0.376556 0.068479
vt 0.376556 0.561992
vt 0.376556 0.808733
vt 0.253177 0.376956
vt 0.376556 0.407792
vt 0.376556 0.438629
vt 0.376556 0.747059
vt 0.376556 0.315251
vt 0.253177 0.870407
vt 0.376556 0.901259
vt 0.376556 0.932111
vt 0.376556 0.253546
vt 0.376556 0.346103
vt 0.376556 0.839570
vt 0.376556 0.993816
vt 0.376556 0.623681
vt 0.438245 0.685370
vt 0.438245 0.006790
vt 0.376556 0.130168
vt 0.438245 0.068479
vt 0.376556 0.376955
vt 0.376556 0.870407
vt 0.499934 0.747059
vt 0.438245 0.747059
vt 0.438245 0.561992
vt 0.499934 0.068479
vt 0.438245 0.130168
vt 0.499934 0.191857
vt 0.438245 0.191857
vt 0.499934 0.006790
vt 0.499934 0.623681
vt 0.746691 0.685370
vt 0.438245 0.561992
vt 0.438245 0.130168
vt 0.499934 0.191857
vt 0.438245 0.623681
vt 0.499934 0.870407
vt 0.499934 0.376956
vt 0.499934 0.130168
s 0
usemtl マテリアル
f 144/1/1 4/2/1 128/3/1
f 138/4/2 8/5/2 129/6/2
f 175/7/3 152/8/3 176/9/3
f 134/10/4 2/11/4 127/12/4
f 25/13/5 88/14/5 82/14/5
f 93/15/6 2/16/6 14/17/6
f 91/18/7 26/19/7 98/20/7
f 92/21/8 18/22/8 95/23/8
f 26/24/9 131/25/9 140/26/9
f 17/27/10 132/28/10 136/29/10
f 4/2/11 133/30/11 128/3/11
f 18/22/12 101/31/12 95/23/12
f 93/15/13 20/32/13 94/33/13
f 135/34/9 14/35/9 134/10/9
f 131/25/9 20/36/9 135/34/9
f 94/33/7 12/37/7 91/18/7
f 15/38/14 136/29/14 133/30/14
f 13/39/15 29/40/15 3/40/15
f 6/41/16 137/42/16 130/43/16
f 96/44/17 6/41/17 90/45/17
f 7/46/15 39/47/15 23/48/15
f 139/49/18 21/50/18 138/4/18
f 132/28/10 27/51/10 139/49/10
f 97/52/8 11/53/8 92/21/8
f 24/54/9 140/26/9 137/42/9
f 96/44/19 26/19/19 24/55/19
f 106/56/8 34/57/8 102/58/8
f 100/59/8 30/60/8 99/61/8
f 101/31/8 36/62/8 100/59/8
f 102/58/8 38/63/8 103/64/8
f 22/65/20 46/66/20 41/67/20
f 38/63/5 46/68/5 28/68/5
f 19/69/15 31/70/15 13/39/15
f 30/60/8 50/62/8 49/71/8
f 23/48/15 40/72/15 25/72/15
f 1/73/20 44/74/20 16/74/20
f 3/40/5 84/75/5 74/76/5
f 5/77/12 106/56/12 105/78/12
f 44/74/21 51/79/21 45/79/21
f 43/73/21 50/80/21 44/74/21
f 46/66/21 47/67/21 41/67/21
f 41/67/21 48/81/21 42/82/21
f 34/57/8 52/68/8 38/63/8
f 5/77/20 41/67/20 42/82/20
f 18/22/12 51/83/12 37/84/12
f 5/77/12 48/81/12 32/81/12
f 32/81/8 47/85/8 34/57/8
f 36/62/8 51/83/8 50/62/8
f 30/86/5 43/86/5 1/87/5
f 16/74/20 45/79/20 18/79/20
f 55/88/12 73/89/12 72/89/12
f 53/90/5 99/91/5 89/92/5
f 87/93/8 70/94/8 88/14/8
f 86/95/8 67/96/8 85/97/8
f 85/97/8 65/98/8 84/99/8
f 73/89/8 69/100/8 87/93/8
f 83/101/22 62/102/22 81/103/22
f 82/14/8 58/104/8 77/105/8
f 75/106/17 62/102/17 56/107/17
f 79/108/20 57/109/20 76/110/20
f 79/108/23 59/111/23 60/112/23
f 61/113/12 86/95/12 80/114/12
f 77/105/8 61/113/8 80/114/8
f 76/110/20 64/115/20 83/101/20
f 71/116/24 59/111/24 78/117/24
f 63/94/5 103/64/5 97/52/5
f 174/118/25 147/119/25 161/120/25
f 173/121/3 148/16/3 172/16/3
f 8/5/26 143/122/26 129/6/26
f 4/123/24 78/117/24 15/124/24
f 10/125/20 83/101/20 27/126/20
f 9/127/8 80/114/8 19/128/8
f 80/114/12 35/128/12 19/128/12
f 17/129/23 78/117/23 79/108/23
f 17/129/20 76/110/20 10/125/20
f 8/5/17 81/103/17 75/106/17
f 25/13/8 77/105/8 9/127/8
f 27/126/22 81/103/22 21/130/22
f 33/46/8 87/93/8 39/131/8
f 31/132/8 84/99/8 29/133/8
f 35/128/8 85/97/8 31/132/8
f 39/131/8 88/14/8 40/13/8
f 72/89/12 33/46/12 7/46/12
f 74/76/5 65/134/5 53/90/5
f 82/14/5 70/94/5 63/94/5
f 166/135/27 157/136/27 162/137/27
f 171/138/28 148/139/28 147/140/28
f 97/52/5 38/63/5 28/68/5
f 89/92/5 30/86/5 1/87/5
f 105/78/12 66/88/12 55/88/12
f 69/100/8 103/64/8 70/94/8
f 68/141/8 100/59/8 67/96/8
f 67/96/8 99/61/8 65/98/8
f 66/88/8 102/58/8 69/100/8
f 62/102/29 98/20/29 96/44/29
f 63/94/8 92/21/8 58/104/8
f 62/102/17 90/45/17 56/107/17
f 60/112/30 91/18/30 57/109/30
f 59/111/31 94/33/31 60/112/31
f 95/23/12 68/141/12 61/113/12
f 58/104/8 95/23/8 61/113/8
f 57/109/30 98/20/30 64/115/30
f 59/111/24 104/142/24 93/15/24
f 164/143/32 149/45/32 163/45/32
f 55/88/26 126/144/26 105/78/26
f 107/145/1 89/92/1 1/87/1
f 53/90/1 124/146/1 74/76/1
f 109/147/26 72/89/26 7/46/26
f 125/148/1 53/90/1 89/92/1
f 123/149/26 55/88/26 72/89/26
f 117/150/9 28/66/9 22/65/9
f 9/151/10 119/152/10 25/72/10
f 25/72/33 118/153/33 23/48/33
f 110/154/34 22/65/34 5/77/34
f 113/155/33 19/69/33 13/39/33
f 11/156/9 115/157/9 18/79/9
f 18/79/9 114/158/9 16/74/9
f 108/159/35 13/39/35 3/40/35
f 116/160/10 9/151/10 19/69/10
f 120/161/9 11/156/9 28/66/9
f 16/74/34 107/162/34 1/73/34
f 105/78/26 110/154/26 5/77/26
f 23/48/35 109/147/35 7/46/35
f 74/76/1 108/159/1 3/40/1
f 121/163/26 146/164/26 126/144/26
f 127/165/1 125/148/1 107/145/1
f 122/166/1 144/1/1 124/146/1
f 129/6/26 123/149/26 109/147/26
f 145/167/1 122/166/1 125/148/1
f 143/122/26 121/163/26 123/149/26
f 137/42/9 120/161/9 117/150/9
f 112/168/10 139/49/10 119/152/10
f 119/152/36 138/4/36 118/153/36
f 130/43/37 117/150/37 110/154/37
f 133/30/38 116/160/38 113/155/38
f 111/169/9 135/34/9 115/157/9
f 115/157/9 134/10/9 114/158/9
f 128/3/39 113/155/39 108/159/39
f 136/29/10 112/168/10 116/160/10
f 140/26/9 111/169/9 120/161/9
f 114/158/40 127/12/40 107/162/40
f 126/144/26 130/43/26 110/154/26
f 118/153/41 129/6/41 109/147/41
f 124/146/1 128/3/1 108/159/1
f 162/137/42 150/170/42 156/171/42
f 153/106/42 157/136/42 159/172/42
f 151/173/43 158/174/43 161/120/43
f 158/174/43 155/175/43 160/176/43
f 148/177/43 161/120/43 147/119/43
f 157/136/42 149/45/42 162/137/42
f 163/45/32 154/107/32 167/178/32
f 178/176/25 158/174/25 160/176/25
f 168/171/27 162/137/27 156/171/27
f 176/9/3 151/179/3 173/121/3
f 170/180/44 153/106/44 159/172/44
f 177/181/25 161/120/25 158/174/25
f 178/176/45 155/175/45 175/182/45
f 165/136/27 159/172/27 157/136/27
f 168/171/46 150/170/46 164/143/46
f 167/178/32 153/106/32 169/106/32
f 56/107/47 169/106/47 75/106/47
f 130/43/48 164/143/48 6/41/48
f 141/183/49 170/180/49 165/136/49
f 143/122/50 169/106/50 170/180/50
f 130/43/49 166/135/49 168/171/49
f 90/45/47 167/178/47 56/107/47
f 6/41/47 163/45/47 90/45/47
f 146/164/49 165/136/49 166/135/49
f 144/1/51 175/182/51 71/175/51
f 142/181/52 174/118/52 177/181/52
f 54/8/53 173/121/53 104/142/53
f 142/181/52 178/176/52 144/1/52
f 127/12/54 172/11/54 171/138/54
f 104/142/53 172/16/53 2/16/53
f 145/167/52 171/119/52 174/118/52
f 71/116/53 176/9/53 54/8/53
f 144/1/1 71/175/1 4/2/1
f 138/4/55 21/50/55 8/5/55
f 175/7/3 155/116/3 152/8/3
f 134/10/56 14/35/56 2/11/56
f 25/13/5 40/13/5 88/14/5
f 93/15/24 104/142/24 2/16/24
f 91/18/7 12/37/7 26/19/7
f 92/21/8 11/53/8 18/22/8
f 26/24/9 12/184/9 131/25/9
f 17/27/10 10/185/10 132/28/10
f 4/2/57 15/38/57 133/30/57
f 18/22/12 37/84/12 101/31/12
f 93/15/19 14/17/19 20/32/19
f 135/34/9 20/36/9 14/35/9
f 131/25/9 12/184/9 20/36/9
f 94/33/7 20/32/7 12/37/7
f 15/38/58 17/27/58 136/29/58
f 13/39/15 31/70/15 29/40/15
f 6/41/59 24/54/59 137/42/59
f 96/44/60 24/55/60 6/41/60
f 7/46/15 33/46/15 39/47/15
f 139/49/61 27/51/61 21/50/61
f 132/28/10 10/185/10 27/51/10
f 97/52/8 28/68/8 11/53/8
f 24/54/9 26/24/9 140/26/9
f 96/44/62 98/20/62 26/19/62
f 106/56/8 32/81/8 34/57/8
f 100/59/8 36/62/8 30/60/8
f 101/31/8 37/84/8 36/62/8
f 102/58/8 34/57/8 38/63/8
f 22/65/20 28/66/20 46/66/20
f 38/63/5 52/68/5 46/68/5
f 19/69/15 35/69/15 31/70/15
f 30/60/8 36/62/8 50/62/8
f 23/48/15 39/47/15 40/72/15
f 1/73/20 43/73/20 44/74/20
f 3/40/5 29/40/5 84/75/5
f 5/77/12 32/81/12 106/56/12
f 44/74/21 50/80/21 51/79/21
f 43/73/21 49/73/21 50/80/21
f 46/66/21 52/66/21 47/67/21
f 41/67/21 47/67/21 48/81/21
f 34/57/8 47/85/8 52/68/8
f 5/77/20 22/65/20 41/67/20
f 18/22/12 45/83/12 51/83/12
f 5/77/12 42/82/12 48/81/12
f 32/81/8 48/81/8 47/85/8
f 36/62/8 37/84/8 51/83/8
f 30/86/5 49/86/5 43/86/5
f 16/74/20 44/74/20 45/79/20
f 55/88/12 66/88/12 73/89/12
f 53/90/5 65/134/5 99/91/5
f 87/93/8 69/100/8 70/94/8
f 86/95/8 68/141/8 67/96/8
f 85/97/8 67/96/8 65/98/8
f 73/89/8 66/88/8 69/100/8
f 83/101/22 64/115/22 62/102/22
f 82/14/8 63/94/8 58/104/8
f 75/106/17 81/103/17 62/102/17
f 79/108/20 60/112/20 57/109/20
f 79/108/23 78/117/23 59/111/23
f 61/113/12 68/141/12 86/95/12
f 77/105/8 58/104/8 61/113/8
f 76/110/20 57/109/20 64/115/20
f 71/116/24 54/8/24 59/111/24
f 63/94/5 70/94/5 103/64/5
f 174/118/25 171/119/25 147/119/25
f 173/121/3 151/179/3 148/16/3
f 8/5/26 75/106/26 143/122/26
f 4/123/24 71/116/24 78/117/24
f 10/125/20 76/110/20 83/101/20
f 9/127/8 77/105/8 80/114/8
f 80/114/12 86/95/12 35/128/12
f 17/129/23 15/124/23 78/117/23
f 17/129/20 79/108/20 76/110/20
f 8/5/17 21/130/17 81/103/17
f 25/13/8 82/14/8 77/105/8
f 27/126/22 83/101/22 81/103/22
f 33/46/8 73/89/8 87/93/8
f 31/132/8 85/97/8 84/99/8
f 35/128/8 86/95/8 85/97/8
f 39/131/8 87/93/8 88/14/8
f 72/89/12 73/89/12 33/46/12
f 74/76/5 84/75/5 65/134/5
f 82/14/5 88/14/5 70/94/5
f 166/135/27 165/136/27 157/136/27
f 171/138/63 172/11/63 148/139/63
f 97/52/5 103/64/5 38/63/5
f 89/92/5 99/91/5 30/86/5
f 105/78/12 106/56/12 66/88/12
f 69/100/8 102/58/8 103/64/8
f 68/141/8 101/31/8 100/59/8
f 67/96/8 100/59/8 99/61/8
f 66/88/8 106/56/8 102/58/8
f 62/102/64 64/115/64 98/20/64
f 63/94/8 97/52/8 92/21/8
f 62/102/17 96/44/17 90/45/17
f 60/112/30 94/33/30 91/18/30
f 59/111/65 93/15/65 94/33/65
f 95/23/12 101/31/12 68/141/12
f 58/104/8 92/21/8 95/23/8
f 57/109/30 91/18/30 98/20/30
f 59/111/24 54/8/24 104/142/24
f 164/143/32 150/170/32 149/45/32
f 55/88/26 121/163/26 126/144/26
f 107/145/1 125/148/1 89/92/1
f 53/90/1 122/166/1 124/146/1
f 109/147/26 123/149/26 72/89/26
f 125/148/1 122/166/1 53/90/1
f 123/149/26 121/163/26 55/88/26
f 117/150/9 120/161/9 28/66/9
f 9/151/10 112/168/10 119/152/10
f 25/72/66 119/152/66 118/153/66
f 110/154/67 117/150/67 22/65/67
f 113/155/68 116/160/68 19/69/68
f 11/156/9 111/169/9 115/157/9
f 18/79/9 115/157/9 114/158/9
f 108/159/69 113/155/69 13/39/69
f 116/160/10 112/168/10 9/151/10
f 120/161/9 111/169/9 11/156/9
f 16/74/70 114/158/70 107/162/70
f 105/78/26 126/144/26 110/154/26
f 23/48/71 118/153/71 109/147/71
f 74/76/1 124/146/1 108/159/1
f 121/163/26 141/183/26 146/164/26
f 127/165/1 145/167/1 125/148/1
f 122/166/1 142/181/1 144/1/1
f 129/6/26 143/122/26 123/149/26
f 145/167/1 142/181/1 122/166/1
f 143/122/26 141/183/26 121/163/26
f 137/42/9 140/26/9 120/161/9
f 112/168/10 132/28/10 139/49/10
f 119/152/72 139/49/72 138/4/72
f 130/43/73 137/42/73 117/150/73
f 133/30/74 136/29/74 116/160/74
f 111/169/9 131/25/9 135/34/9
f 115/157/9 135/34/9 134/10/9
f 128/3/75 133/30/75 113/155/75
f 136/29/10 132/28/10 112/168/10
f 140/26/9 131/25/9 111/169/9
f 114/158/76 134/10/76 127/12/76
f 126/144/26 146/164/26 130/43/26
f 118/153/77 138/4/77 129/6/77
f 124/146/1 144/1/1 128/3/1
f 162/137/42 149/45/42 150/170/42
f 153/106/42 154/107/42 157/136/42
f 151/173/43 152/186/43 158/174/43
f 158/174/43 152/186/43 155/175/43
f 148/177/43 151/173/43 161/120/43
f 157/136/42 154/107/42 149/45/42
f 163/45/32 149/45/32 154/107/32
f 178/176/25 177/181/25 158/174/25
f 168/171/27 166/135/27 162/137/27
f 176/9/3 152/8/3 151/179/3
f 170/180/78 169/106/78 153/106/78
f 177/181/25 174/118/25 161/120/25
f 178/176/79 160/176/79 155/175/79
f 165/136/27 170/180/27 159/172/27
f 168/171/80 156/171/80 150/170/80
f 167/178/32 154/107/32 153/106/32
f 56/107/47 167/178/47 169/106/47
f 130/43/81 168/171/81 164/143/81
f 141/183/49 143/122/49 170/180/49
f 143/122/82 75/106/82 169/106/82
f 130/43/49 146/164/49 166/135/49
f 90/45/47 163/45/47 167/178/47
f 6/41/47 164/143/47 163/45/47
f 146/164/49 141/183/49 165/136/49
f 144/1/83 178/176/83 175/182/83
f 142/181/52 145/167/52 174/118/52
f 54/8/53 176/9/53 173/121/53
f 142/181/52 177/181/52 178/176/52
f 127/12/84 2/11/84 172/11/84
f 104/142/53 173/121/53 172/16/53
f 145/167/52 127/165/52 171/119/52
f 71/116/53 175/7/53 176/9/53
o 球.001
v 0.000000 0.656250 -0.111114
v 0.000000 0.601070 -0.166294
v 0.000000 0.528974 -0.196157
v 0.000000 0.489956 -0.200000
v 0.000000 0.450938 -0.196157
v 0.000000 0.378842 -0.166294
v 0.007612 0.686113 -0.038268
v 0.014932 0.674732 -0.075066
v 0.021677 0.656250 -0.108979
v 0.027590 0.631378 -0.138704
v 0.032442 0.601070 -0.163099
v 0.036048 0.566493 -0.181225
v 0.038268 0.528974 -0.192388
v 0.039018 0.489956 -0.196157
v 0.038268 0.450938 -0.192388
v 0.036048 0.413419 -0.181225
v 0.032442 0.378842 -0.163099
v 0.027590 0.348535 -0.138704
v 0.021677 0.323662 -0.108979
v 0.014932 0.305180 -0.075066
v 0.007612 0.293799 -0.038268
v 0.014932 0.686113 -0.036048
v 0.029289 0.674732 -0.070711
v 0.042522 0.656250 -0.102656
v 0.054120 0.631378 -0.130656
v 0.063638 0.601070 -0.153636
v 0.070711 0.566493 -0.170711
v 0.075066 0.528974 -0.181225
v 0.076537 0.489956 -0.184776
v 0.075066 0.450938 -0.181225
v 0.070711 0.413419 -0.170711
v 0.063638 0.378842 -0.153636
v 0.054120 0.348535 -0.130656
v 0.042522 0.323662 -0.102656
v 0.029289 0.305180 -0.070711
v 0.014932 0.293799 -0.036048
v 0.021677 0.686113 -0.032442
v 0.042522 0.674732 -0.063638
v 0.061732 0.656250 -0.092388
v 0.078569 0.631378 -0.117588
v 0.092388 0.601070 -0.138268
v 0.102656 0.566493 -0.153636
v 0.108979 0.528974 -0.163099
v 0.111114 0.489956 -0.166294
v 0.108979 0.450938 -0.163099
v 0.102656 0.413419 -0.153636
v 0.092388 0.378842 -0.138268
v 0.078569 0.348535 -0.117588
v 0.061732 0.323662 -0.092388
v 0.042522 0.305180 -0.063638
v 0.021677 0.293799 -0.032442
v 0.027590 0.686113 -0.027590
v 0.054120 0.674732 -0.054120
v 0.078569 0.656250 -0.078569
v 0.100000 0.631378 -0.100000
v 0.117588 0.601070 -0.117588
v 0.130656 0.566493 -0.130656
v 0.138704 0.528974 -0.138704
v 0.141421 0.489956 -0.141421
v 0.138704 0.450938 -0.138704
v 0.130656 0.413419 -0.130656
v 0.117588 0.378842 -0.117588
v 0.100000 0.348535 -0.100000
v 0.078569 0.323662 -0.078569
v 0.054120 0.305180 -0.054120
v 0.027590 0.293799 -0.027590
v 0.032442 0.686113 -0.021677
v 0.063638 0.674732 -0.042522
v 0.092388 0.656250 -0.061732
v 0.117588 0.631378 -0.078569
v 0.138268 0.601070 -0.092388
v 0.153636 0.566493 -0.102656
v 0.163099 0.528974 -0.108979
v 0.166294 0.489956 -0.111114
v 0.163099 0.450938 -0.108979
v 0.153636 0.413419 -0.102656
v 0.138268 0.378842 -0.092388
v 0.117588 0.348535 -0.078569
v 0.092388 0.323662 -0.061732
v 0.063638 0.305180 -0.042522
v 0.032442 0.293799 -0.021677
v 0.000000 0.689956 0.000000
v 0.036048 0.686113 -0.014932
v 0.070711 0.674732 -0.029289
v 0.102656 0.656250 -0.042521
v 0.130656 0.631378 -0.054120
v 0.153636 0.601070 -0.063638
v 0.170711 0.566493 -0.070711
v 0.181225 0.528974 -0.075066
v 0.184776 0.489956 -0.076537
v 0.181225 0.450938 -0.075066
v 0.170711 0.413419 -0.070711
v 0.153636 0.378842 -0.063638
v 0.130656 0.348535 -0.054120
v 0.102656 0.323662 -0.042521
v 0.070711 0.305180 -0.029289
v 0.036048 0.293799 -0.014932
v 0.038268 0.686113 -0.007612
v 0.075066 0.674732 -0.014932
v 0.108979 0.656250 -0.021677
v 0.138704 0.631378 -0.027590
v 0.163099 0.601070 -0.032442
v 0.181225 0.566493 -0.036048
v 0.192388 0.528974 -0.038268
v 0.196157 0.489956 -0.039018
v 0.192388 0.450938 -0.038268
v 0.181225 0.413419 -0.036048
v 0.163099 0.378842 -0.032442
v 0.138704 0.348535 -0.027590
v 0.108979 0.323662 -0.021677
v 0.075066 0.305180 -0.014932
v 0.038268 0.293799 -0.007612
v 0.039018 0.686113 0.000000
v 0.076537 0.674732 0.000000
v 0.111114 0.656250 0.000000
v 0.141421 0.631378 -0.000000
v 0.166294 0.601070 0.000000
v 0.184776 0.566493 -0.000000
v 0.196157 0.528974 0.000000
v 0.200000 0.489956 0.000000
v 0.196157 0.450938 0.000000
v 0.184776 0.413419 -0.000000
v 0.166294 0.378842 0.000000
v 0.141421 0.348535 -0.000000
v 0.111114 0.323662 0.000000
v 0.076537 0.305180 0.000000
v 0.039018 0.293799 0.000000
v 0.038268 0.686113 0.007612
v 0.075066 0.674732 0.014932
v 0.108979 0.656250 0.021677
v 0.138704 0.631378 0.027590
v 0.163099 0.601070 0.032442
v 0.181225 0.566493 0.036048
v 0.192388 0.528974 0.038268
v 0.196157 0.489956 0.039018
v 0.192388 0.450938 0.038268
v 0.181225 0.413419 0.036048
v 0.163099 0.378842 0.032442
v 0.138704 0.348535 0.027590
v 0.108979 0.323662 0.021677
v 0.075066 0.305180 0.014932
v 0.038268 0.293799 0.007612
v 0.036048 0.686113 0.014932
v 0.070711 0.674732 0.029289
v 0.102656 0.656250 0.042522
v 0.130656 0.631378 0.054120
v 0.153636 0.601070 0.063638
v 0.170711 0.566493 0.070711
v 0.181225 0.528974 0.075066
v 0.184776 0.489956 0.076537
v 0.181225 0.450938 0.075066
v 0.170711 0.413419 0.070711
v 0.153636 0.378842 0.063638
v 0.130656 0.348535 0.054120
v 0.102656 0.323662 0.042522
v 0.070711 0.305180 0.029289
v 0.036048 0.293799 0.014932
v 0.032442 0.686113 0.021677
v 0.063638 0.674732 0.042522
v 0.092388 0.656250 0.061732
v 0.117588 0.631378 0.078569
v 0.138268 0.601070 0.092388
v 0.153636 0.566493 0.102656
v 0.163099 0.528974 0.108979
v 0.166294 0.489956 0.111114
v 0.163099 0.450938 0.108979
v 0.153636 0.413419 0.102656
v 0.138268 0.378842 0.092388
v 0.117588 0.348535 0.078569
v 0.092388 0.323662 0.061732
v 0.063638 0.305180 0.042522
v 0.032442 0.293799 0.021677
v 0.027590 0.686113 0.027590
v 0.054120 0.674732 0.054120
v 0.078569 0.656250 0.078569
v 0.100000 0.631378 0.100000
v 0.117588 0.601070 0.117588
v 0.130656 0.566493 0.130656
v 0.138704 0.528974 0.138704
v 0.141421 0.489956 0.141421
v 0.138704 0.450938 0.138704
v 0.130656 0.413419 0.130656
v 0.117588 0.378842 0.117588
v 0.100000 0.348535 0.100000
v 0.078569 0.323662 0.078569
v 0.054120 0.305180 0.054120
v 0.027590 0.293799 0.027590
v 0.021677 0.686113 0.032442
v 0.042521 0.674732 0.063638
v 0.061732 0.656250 0.092388
v 0.078569 0.631378 0.117588
v 0.092388 0.601070 0.138268
v 0.102656 0.566493 0.153636
v 0.108979 0.528974 0.163099
v 0.111114 0.489956 0.166294
v 0.108979 0.450938 0.163099
v 0.102656 0.413419 0.153636
v 0.092388 0.378842 0.138268
v 0.078569 0.348535 0.117588
v 0.061732 0.323662 0.092388
v 0.042521 0.305180 0.063638
v 0.021677 0.293799 0.032442
v 0.014932 0.686113 0.036048
v 0.029289 0.674732 0.070711
v 0.042521 0.656250 0.102656
v 0.054120 0.631378 0.130656
v 0.063638 0.601070 0.153636
v 0.070711 0.566493 0.170711
v 0.075066 0.528974 0.181225
v 0.076537 0.489956 0.184776
v 0.075066 0.450938 0.181225
v 0.070711 0.413419 0.170711
v 0.063638 0.378842 0.153636
v 0.054120 0.348535 0.130656
v 0.042521 0.323662 0.102656
v 0.029289 0.305180 0.070711
v 0.014932 0.293799 0.036048
v 0.007612 0.686113 0.038268
v 0.014932 0.674732 0.075066
v 0.021677 0.656250 0.108979
v 0.027590 0.631378 0.138704
v 0.032442 0.601070 0.163099
v 0.036048 0.566493 0.181225
v 0.038268 0.528974 0.192388
v 0.039018 0.489956 0.196157
v 0.038268 0.450938 0.192388
v 0.036048 0.413419 0.181225
v 0.032442 0.378842 0.163099
v 0.027590 0.348535 0.138704
v 0.021677 0.323662 0.108979
v 0.014932 0.305180 0.075066
v 0.007612 0.293799 0.038268
v -0.000000 0.686113 0.039018
v -0.000000 0.674732 0.076537
v -0.000000 0.656250 0.111114
v -0.000000 0.631378 0.141421
v -0.000000 0.601070 0.166294
v 0.000000 0.566493 0.184776
v -0.000000 0.528974 0.196157
v -0.000000 0.489956 0.200000
v -0.000000 0.450938 0.196157
v 0.000000 0.413419 0.184776
v -0.000000 0.378842 0.166294
v -0.000000 0.348535 0.141421
v -0.000000 0.323662 0.111114
v -0.000000 0.305180 0.076537
v -0.000000 0.293799 0.039018
v -0.007612 0.686113 0.038268
v -0.014932 0.674732 0.075066
v -0.021677 0.656250 0.108979
v -0.027590 0.631378 0.138704
v -0.032442 0.601070 0.163099
v -0.036048 0.566493 0.181225
v -0.038268 0.528974 0.192388
v -0.039018 0.489956 0.196157
v -0.038268 0.450938 0.192388
v -0.036048 0.413419 0.181225
v -0.032442 0.378842 0.163099
v -0.027590 0.348535 0.138704
v -0.021677 0.323662 0.108979
v -0.014932 0.305180 0.075066
v -0.007612 0.293799 0.038268
v -0.014932 0.686113 0.036048
v -0.029289 0.674732 0.070711
v -0.042522 0.656250 0.102656
v -0.054120 0.631378 0.130656
v -0.063638 0.601070 0.153635
v -0.070711 0.566493 0.170711
v -0.075066 0.528974 0.181225
v -0.076537 0.489956 0.184776
v -0.075066 0.450938 0.181225
v -0.070711 0.413419 0.170711
v -0.063638 0.378842 0.153635
v -0.054120 0.348535 0.130656
v -0.042522 0.323662 0.102656
v -0.029289 0.305180 0.070711
v -0.014932 0.293799 0.036048
v -0.021677 0.686113 0.032442
v -0.042522 0.674732 0.063638
v -0.061732 0.656250 0.092388
v -0.078569 0.631378 0.117588
v -0.092388 0.601070 0.138268
v -0.102656 0.566493 0.153636
v -0.108979 0.528974 0.163099
v -0.111114 0.489956 0.166294
v -0.108979 0.450938 0.163099
v -0.102656 0.413419 0.153636
v -0.092388 0.378842 0.138268
v -0.078569 0.348535 0.117588
v -0.061732 0.323662 0.092388
v -0.042522 0.305180 0.063638
v -0.021677 0.293799 0.032442
v -0.027590 0.686113 0.027590
v -0.054120 0.674732 0.054120
v -0.078569 0.656250 0.078569
v -0.100000 0.631378 0.100000
v -0.117588 0.601070 0.117587
v -0.130656 0.566493 0.130656
v -0.138704 0.528974 0.138704
v -0.141421 0.489956 0.141421
v -0.138704 0.450938 0.138704
v -0.130656 0.413419 0.130656
v -0.117588 0.378842 0.117587
v -0.100000 0.348535 0.100000
v -0.078569 0.323662 0.078569
v -0.054120 0.305180 0.054120
v -0.027590 0.293799 0.027590
v 0.000000 0.289956 0.000000
v -0.032442 0.686113 0.021677
v -0.063638 0.674732 0.042521
v -0.092388 0.656250 0.061732
v -0.117588 0.631378 0.078569
v -0.138268 0.601070 0.092388
v -0.153635 0.566493 0.102656
v -0.163099 0.528974 0.108979
v -0.166294 0.489956 0.111114
v -0.163099 0.450938 0.108979
v -0.153635 0.413419 0.102656
v -0.138268 0.378842 0.092388
v -0.117588 0.348535 0.078569
v -0.092388 0.323662 0.061732
v -0.063638 0.305180 0.042521
v -0.032442 0.293799 0.021677
v -0.036048 0.686113 0.014932
v -0.070711 0.674732 0.029289
v -0.102656 0.656250 0.042521
v -0.130656 0.631378 0.054120
v -0.153635 0.601070 0.063638
v -0.170711 0.566493 0.070711
v -0.181225 0.528974 0.075066
v -0.184776 0.489956 0.076537
v -0.181225 0.450938 0.075066
v -0.170711 0.413419 0.070711
v -0.153635 0.378842 0.063638
v -0.130656 0.348535 0.054120
v -0.102656 0.323662 0.042521
v -0.070711 0.305180 0.029289
v -0.036048 0.293799 0.014932
v -0.038268 0.686113 0.007612
v -0.075066 0.674732 0.014932
v -0.108979 0.656250 0.021677
v -0.138704 0.631378 0.027590
v -0.163099 0.601070 0.032442
v -0.181225 0.566493 0.036048
v -0.192388 0.528974 0.038268
v -0.196157 0.489956 0.039018
v -0.192388 0.450938 0.038268
v -0.181225 0.413419 0.036048
v -0.163099 0.378842 0.032442
v -0.138704 0.348535 0.027590
v -0.108979 0.323662 0.021677
v -0.075066 0.305180 0.014932
v -0.038268 0.293799 0.007612
v -0.039018 0.686113 -0.000000
v -0.076537 0.674732 -0.000000
v -0.111114 0.656250 -0.000000
v -0.141421 0.631378 -0.000000
v -0.166294 0.601070 -0.000000
v -0.184776 0.566493 -0.000000
v -0.196157 0.528974 -0.000000
v -0.200000 0.489956 -0.000000
v -0.196157 0.450938 -0.000000
v -0.184776 0.413419 -0.000000
v -0.166294 0.378842 -0.000000
v -0.141421 0.348535 -0.000000
v -0.111114 0.323662 -0.000000
v -0.076537 0.305180 -0.000000
v -0.039018 0.293799 -0.000000
v -0.038268 0.686113 -0.007612
v -0.075066 0.674732 -0.014932
v -0.108979 0.656250 -0.021677
v -0.138704 0.631378 -0.027590
v -0.163099 0.601070 -0.032442
v -0.181225 0.566493 -0.036048
v -0.192388 0.528974 -0.038268
v -0.196157 0.489956 -0.039018
v -0.192388 0.450938 -0.038268
v -0.181225 0.413419 -0.036048
v -0.163099 0.378842 -0.032442
v -0.138704 0.348535 -0.027590
v -0.108979 0.323662 -0.021677
v -0.075066 0.305180 -0.014932
v -0.038268 0.293799 -0.007612
v -0.036048 0.686113 -0.014932
v -0.070711 0.674732 -0.029289
v -0.102656 0.656250 -0.042521
v -0.130656 0.631378 -0.054120
v -0.153635 0.601070 -0.063638
v -0.170711 0.566493 -0.070711
v -0.181225 0.528974 -0.075066
v -0.184776 0.489956 -0.076537
v -0.181225 0.450938 -0.075066
v -0.170711 0.413419 -0.070711
v -0.153635 0.378842 -0.063638
v -0.130656 0.348535 -0.054120
v -0.102656 0.323662 -0.042521
v -0.070711 0.305180 -0.029289
v -0.036048 0.293799 -0.014932
v -0.032442 0.686113 -0.021677
v -0.063638 0.674732 -0.042521
v -0.092388 0.656250 -0.061732
v -0.117588 0.631378 -0.078569
v -0.138268 0.601070 -0.092388
v -0.153635 0.566493 -0.102656
v -0.163099 0.528974 -0.108979
v -0.166294 0.489956 -0.111114
v -0.163099 0.450938 -0.108979
v -0.153635 0.413419 -0.102656
v -0.138268 0.378842 -0.092388
v -0.117588 0.348535 -0.078569
v -0.092388 0.323662 -0.061732
v -0.063638 0.305180 -0.042521
v -0.032442 0.293799 -0.021677
v -0.027590 0.686113 -0.027590
v -0.054120 0.674732 -0.054120
v -0.078569 0.656250 -0.078569
v -0.100000 0.631378 -0.100000
v -0.117587 0.601070 -0.117588
v -0.130656 0.566493 -0.130656
v -0.138704 0.528974 -0.138704
v -0.141421 0.489956 -0.141421
v -0.138704 0.450938 -0.138704
v -0.130656 0.413419 -0.130656
v -0.117587 0.378842 -0.117588
v -0.100000 0.348535 -0.100000
v -0.078569 0.323662 -0.078569
v -0.054120 0.305180 -0.054120
v -0.027590 0.293799 -0.027590
v -0.021677 0.686113 -0.032442
v -0.042521 0.674732 -0.063638
v -0.061732 0.656250 -0.092388
v -0.078569 0.631378 -0.117588
v -0.092388 0.601070 -0.138268
v -0.102656 0.566493 -0.153635
v -0.108979 0.528974 -0.163099
v -0.111114 0.489956 -0.166294
v -0.108979 0.450938 -0.163099
v -0.102656 0.413419 -0.153635
v -0.092388 0.378842 -0.138268
v -0.078569 0.348535 -0.117588
v -0.061732 0.323662 -0.092388
v -0.042521 0.305180 -0.063638
v -0.021677 0.293799 -0.032442
v -0.014932 0.686113 -0.036048
v -0.029289 0.674732 -0.070711
v -0.042521 0.656250 -0.102656
v -0.054120 0.631378 -0.130656
v -0.063638 0.601070 -0.153635
v -0.070711 0.566493 -0.170711
v -0.075066 0.528974 -0.181225
v -0.076537 0.489956 -0.184776
v -0.075066 0.450938 -0.181225
v -0.070711 0.413419 -0.170711
v -0.063638 0.378842 -0.153635
v -0.054120 0.348535 -0.130656
v -0.042521 0.323662 -0.102656
v -0.029289 0.305180 -0.070711
v -0.014932 0.293799 -0.036048
v -0.007612 0.686113 -0.038268
v -0.014932 0.674732 -0.075066
v -0.021677 0.656250 -0.108979
v -0.027590 0.631378 -0.138704
v -0.032442 0.601070 -0.163099
v -0.036048 0.566493 -0.181225
v -0.038268 0.528974 -0.192388
v -0.039018 0.489956 -0.196157
v -0.038268 0.450938 -0.192388
v -0.036048 0.413419 -0.181225
v -0.032442 0.378842 -0.163099
v -0.027590 0.348535 -0.138704
v -0.021677 0.323662 -0.108979
v -0.014932 0.305180 -0.075066
v -0.007612 0.293799 -0.038268
v 0.000000 0.686113 -0.039018
v 0.000000 0.674732 -0.076537
v 0.000000 0.631378 -0.141421
v 0.000000 0.566493 -0.184776
v 0.000000 0.413419 -0.184776
v 0.000000 0.348535 -0.141421
v 0.000000 0.323662 -0.111114
v 0.000000 0.305180 -0.076537
v 0.000000 0.293799 -0.039018
vn 0.0097 -0.9951 -0.0980
vn 0.0975 -0.0976 -0.9904
vn 0.0286 0.9565 -0.2902
vn 0.0938 -0.2890 -0.9527
vn 0.0464 0.8810 -0.4709
vn 0.0865 -0.4696 -0.8786
vn 0.0624 0.7715 -0.6332
vn 0.0759 -0.6326 -0.7708
vn 0.0759 0.6326 -0.7708
vn 0.0624 -0.7715 -0.6332
vn 0.0865 0.4696 -0.8786
vn 0.0464 -0.8810 -0.4709
vn 0.0938 0.2890 -0.9527
vn 0.0286 -0.9565 -0.2902
vn 0.0975 0.0975 -0.9904
vn 0.0097 0.9951 -0.0980
vn 0.0846 -0.9565 -0.2790
vn 0.2889 0.0976 -0.9524
vn 0.0286 0.9951 -0.0942
vn 0.0286 -0.9951 -0.0942
vn 0.2889 -0.0976 -0.9524
vn 0.0846 0.9565 -0.2790
vn 0.2779 -0.2890 -0.9161
vn 0.1374 0.8810 -0.4528
vn 0.2563 -0.4696 -0.8448
vn 0.1847 0.7715 -0.6088
vn 0.2248 -0.6326 -0.7412
vn 0.2248 0.6326 -0.7412
vn 0.1847 -0.7715 -0.6088
vn 0.2563 0.4696 -0.8448
vn 0.1374 -0.8810 -0.4528
vn 0.2779 0.2890 -0.9161
vn 0.2999 0.7715 -0.5611
vn 0.3651 -0.6326 -0.6831
vn 0.3651 0.6326 -0.6831
vn 0.2999 -0.7715 -0.5611
vn 0.4162 0.4696 -0.7786
vn 0.2230 -0.8810 -0.4173
vn 0.4513 0.2890 -0.8443
vn 0.1374 -0.9565 -0.2571
vn 0.4691 0.0975 -0.8777
vn 0.0464 0.9951 -0.0869
vn 0.0464 -0.9951 -0.0869
vn 0.4691 -0.0975 -0.8777
vn 0.1374 0.9565 -0.2571
vn 0.4513 -0.2890 -0.8443
vn 0.2231 0.8810 -0.4173
vn 0.4162 -0.4696 -0.7786
vn 0.6314 0.0975 -0.7693
vn 0.0625 0.9951 -0.0761
vn 0.0625 -0.9951 -0.0761
vn 0.6314 -0.0975 -0.7693
vn 0.1850 0.9565 -0.2254
vn 0.6073 -0.2890 -0.7400
vn 0.3002 0.8810 -0.3658
vn 0.5601 -0.4696 -0.6825
vn 0.4036 0.7715 -0.4918
vn 0.4913 -0.6326 -0.5987
vn 0.4913 0.6326 -0.5987
vn 0.4036 -0.7715 -0.4918
vn 0.5601 0.4696 -0.6825
vn 0.3002 -0.8810 -0.3658
vn 0.6073 0.2890 -0.7400
vn 0.1850 -0.9565 -0.2254
vn 0.5987 -0.6326 -0.4913
vn 0.5987 0.6326 -0.4913
vn 0.4918 -0.7715 -0.4036
vn 0.6825 0.4696 -0.5601
vn 0.3658 -0.8810 -0.3002
vn 0.7400 0.2890 -0.6073
vn 0.2254 -0.9566 -0.1850
vn 0.7693 0.0975 -0.6314
vn 0.0761 0.9951 -0.0625
vn 0.0761 -0.9951 -0.0625
vn 0.7693 -0.0975 -0.6314
vn 0.2254 0.9565 -0.1850
vn 0.7400 -0.2890 -0.6073
vn 0.3658 0.8810 -0.3002
vn 0.6825 -0.4696 -0.5601
vn 0.4918 0.7715 -0.4036
vn 0.0869 -0.9951 -0.0464
vn 0.8777 -0.0975 -0.4691
vn 0.2571 0.9565 -0.1374
vn 0.8443 -0.2890 -0.4513
vn 0.4173 0.8810 -0.2230
vn 0.7786 -0.4696 -0.4162
vn 0.5611 0.7715 -0.2999
vn 0.6831 -0.6326 -0.3651
vn 0.6831 0.6326 -0.3651
vn 0.5611 -0.7715 -0.2999
vn 0.7786 0.4696 -0.4162
vn 0.4173 -0.8810 -0.2230
vn 0.8443 0.2890 -0.4513
vn 0.2571 -0.9565 -0.1374
vn 0.8777 0.0975 -0.4691
vn 0.0869 0.9951 -0.0464
vn 0.6088 -0.7715 -0.1847
vn 0.8448 0.4696 -0.2563
vn 0.4528 -0.8810 -0.1374
vn 0.9161 0.2890 -0.2779
vn 0.2790 -0.9565 -0.0846
vn 0.9524 0.0975 -0.2889
vn 0.0942 0.9951 -0.0286
vn 0.0942 -0.9951 -0.0286
vn 0.9524 -0.0975 -0.2889
vn 0.2790 0.9565 -0.0846
vn 0.9161 -0.2890 -0.2779
vn 0.4528 0.8810 -0.1374
vn 0.8448 -0.4696 -0.2563
vn 0.6088 0.7715 -0.1847
vn 0.7412 -0.6326 -0.2248
vn 0.7412 0.6326 -0.2248
vn 0.2902 0.9565 -0.0286
vn 0.9527 -0.2890 -0.0938
vn 0.4709 0.8810 -0.0464
vn 0.8786 -0.4696 -0.0865
vn 0.6332 0.7715 -0.0624
vn 0.7708 -0.6326 -0.0759
vn 0.7708 0.6326 -0.0759
vn 0.6332 -0.7715 -0.0624
vn 0.8786 0.4696 -0.0865
vn 0.4709 -0.8810 -0.0464
vn 0.9527 0.2890 -0.0938
vn 0.2902 -0.9565 -0.0286
vn 0.9904 0.0975 -0.0975
vn 0.0980 0.9951 -0.0097
vn 0.0980 -0.9951 -0.0097
vn 0.9904 -0.0975 -0.0975
vn 0.8786 0.4696 0.0865
vn 0.4709 -0.8810 0.0464
vn 0.9527 0.2890 0.0938
vn 0.2902 -0.9565 0.0286
vn 0.9904 0.0975 0.0976
vn 0.0980 0.9951 0.0097
vn 0.0980 -0.9951 0.0097
vn 0.9904 -0.0975 0.0976
vn 0.2902 0.9565 0.0286
vn 0.9527 -0.2890 0.0938
vn 0.4709 0.8810 0.0464
vn 0.8786 -0.4696 0.0865
vn 0.6332 0.7715 0.0624
vn 0.7708 -0.6326 0.0759
vn 0.7708 0.6326 0.0759
vn 0.6332 -0.7715 0.0624
vn 0.9161 -0.2890 0.2779
vn 0.4528 0.8810 0.1374
vn 0.8448 -0.4696 0.2563
vn 0.6088 0.7715 0.1847
vn 0.7412 -0.6326 0.2248
vn 0.7412 0.6326 0.2248
vn 0.6088 -0.7715 0.1847
vn 0.8448 0.4696 0.2563
vn 0.4528 -0.8810 0.1374
vn 0.9161 0.2890 0.2779
vn 0.2790 -0.9565 0.0846
vn 0.9524 0.0975 0.2889
vn 0.0942 0.9951 0.0286
vn 0.0942 -0.9951 0.0286
vn 0.9524 -0.0975 0.2889
vn 0.2790 0.9565 0.0846
vn 0.4173 -0.8810 0.2230
vn 0.8443 0.2890 0.4513
vn 0.2571 -0.9566 0.1374
vn 0.8777 0.0975 0.4691
vn 0.0869 0.9951 0.0464
vn 0.0869 -0.9951 0.0464
vn 0.8777 -0.0975 0.4691
vn 0.2571 0.9565 0.1374
vn 0.8443 -0.2890 0.4513
vn 0.4173 0.8810 0.2231
vn 0.7786 -0.4696 0.4162
vn 0.5611 0.7715 0.2999
vn 0.6831 -0.6326 0.3651
vn 0.6831 0.6326 0.3651
vn 0.5611 -0.7715 0.2999
vn 0.7786 0.4696 0.4162
vn 0.3658 0.8810 0.3002
vn 0.6825 -0.4696 0.5601
vn 0.4918 0.7715 0.4036
vn 0.5987 -0.6326 0.4913
vn 0.5987 0.6326 0.4913
vn 0.4918 -0.7715 0.4036
vn 0.6825 0.4696 0.5601
vn 0.3658 -0.8810 0.3002
vn 0.7400 0.2890 0.6073
vn 0.2254 -0.9565 0.1850
vn 0.7693 0.0975 0.6314
vn 0.0761 0.9951 0.0625
vn 0.0761 -0.9951 0.0625
vn 0.7693 -0.0975 0.6314
vn 0.2254 0.9565 0.1850
vn 0.7400 -0.2890 0.6073
vn 0.6073 0.2890 0.7400
vn 0.1850 -0.9565 0.2254
vn 0.6314 0.0975 0.7693
vn 0.0625 0.9951 0.0761
vn 0.0625 -0.9951 0.0761
vn 0.6314 -0.0975 0.7693
vn 0.1850 0.9565 0.2254
vn 0.6073 -0.2890 0.7400
vn 0.3002 0.8810 0.3658
vn 0.5601 -0.4696 0.6825
vn 0.4036 0.7715 0.4918
vn 0.4913 -0.6326 0.5987
vn 0.4913 0.6326 0.5987
vn 0.4036 -0.7715 0.4918
vn 0.5601 0.4696 0.6825
vn 0.3002 -0.8810 0.3658
vn 0.4162 -0.4696 0.7786
vn 0.2999 0.7715 0.5611
vn 0.3651 -0.6326 0.6831
vn 0.3651 0.6326 0.6831
vn 0.2999 -0.7715 0.5611
vn 0.4162 0.4696 0.7786
vn 0.2230 -0.8810 0.4173
vn 0.4513 0.2890 0.8443
vn 0.1374 -0.9565 0.2571
vn 0.4691 0.0975 0.8777
vn 0.0464 0.9951 0.0869
vn 0.0464 -0.9951 0.0869
vn 0.4691 -0.0975 0.8777
vn 0.1374 0.9565 0.2571
vn 0.4513 -0.2890 0.8443
vn 0.2230 0.8810 0.4173
vn 0.0846 -0.9565 0.2790
vn 0.2889 0.0975 0.9524
vn 0.0286 0.9951 0.0942
vn 0.0286 -0.9951 0.0942
vn 0.2889 -0.0975 0.9524
vn 0.0846 0.9565 0.2790
vn 0.2779 -0.2890 0.9161
vn 0.1374 0.8810 0.4528
vn 0.2563 -0.4696 0.8448
vn 0.1847 0.7715 0.6088
vn 0.2248 -0.6326 0.7412
vn 0.2248 0.6326 0.7412
vn 0.1847 -0.7715 0.6088
vn 0.2563 0.4696 0.8448
vn 0.1374 -0.8810 0.4528
vn 0.2779 0.2890 0.9161
vn 0.0759 -0.6326 0.7708
vn 0.0759 0.6326 0.7708
vn 0.0624 -0.7715 0.6332
vn 0.0865 0.4696 0.8786
vn 0.0464 -0.8810 0.4709
vn 0.0938 0.2890 0.9527
vn 0.0286 -0.9565 0.2902
vn 0.0975 0.0975 0.9904
vn 0.0097 0.9951 0.0980
vn 0.0097 -0.9951 0.0980
vn 0.0975 -0.0975 0.9904
vn 0.0286 0.9565 0.2902
vn 0.0938 -0.2890 0.9527
vn 0.0464 0.8810 0.4709
vn 0.0865 -0.4696 0.8786
vn 0.0624 0.7715 0.6332
vn -0.0097 0.9951 0.0980
vn -0.0097 -0.9951 0.0980
vn -0.0975 -0.0975 0.9904
vn -0.0286 0.9565 0.2902
vn -0.0938 -0.2890 0.9527
vn -0.0464 0.8810 0.4709
vn -0.0865 -0.4696 0.8786
vn -0.0624 0.7715 0.6332
vn -0.0759 -0.6326 0.7708
vn -0.0759 0.6326 0.7708
vn -0.0624 -0.7715 0.6332
vn -0.0865 0.4696 0.8786
vn -0.0464 -0.8810 0.4709
vn -0.0938 0.2890 0.9527
vn -0.0286 -0.9565 0.2902
vn -0.0976 0.0975 0.9904
vn -0.2248 0.6326 0.7412
vn -0.1847 -0.7715 0.6088
vn -0.2563 0.4696 0.8448
vn -0.1374 -0.8810 0.4528
vn -0.2779 0.2890 0.9161
vn -0.0846 -0.9565 0.2790
vn -0.2889 0.0975 0.9524
vn -0.0286 0.9951 0.0942
vn -0.0286 -0.9951 0.0942
vn -0.2889 -0.0975 0.9524
vn -0.0846 0.9565 0.2790
vn -0.2779 -0.2890 0.9161
vn -0.1374 0.8810 0.4528
vn -0.2563 -0.4696 0.8448
vn -0.1847 0.7715 0.6088
vn -0.2248 -0.6326 0.7412
vn -0.4691 -0.0975 0.8777
vn -0.1374 0.9565 0.2571
vn -0.4513 -0.2890 0.8443
vn -0.2230 0.8810 0.4173
vn -0.4162 -0.4696 0.7786
vn -0.2999 0.7715 0.5611
vn -0.3651 -0.6326 0.6831
vn -0.3651 0.6326 0.6831
vn -0.2999 -0.7715 0.5611
vn -0.4162 0.4696 0.7786
vn -0.2230 -0.8810 0.4173
vn -0.4513 0.2890 0.8443
vn -0.1374 -0.9565 0.2571
vn -0.4691 0.0975 0.8777
vn -0.0464 0.9951 0.0869
vn -0.0464 -0.9951 0.0869
vn -0.4036 -0.7715 0.4918
vn -0.5601 0.4696 0.6825
vn -0.3002 -0.8810 0.3658
vn -0.6073 0.2890 0.7400
vn -0.1850 -0.9565 0.2254
vn -0.6314 0.0975 0.7693
vn -0.0625 0.9951 0.0761
vn -0.0625 -0.9951 0.0761
vn -0.6314 -0.0975 0.7693
vn -0.1850 0.9565 0.2254
vn -0.6073 -0.2890 0.7400
vn -0.3002 0.8810 0.3658
vn -0.5601 -0.4696 0.6825
vn -0.4036 0.7715 0.4918
vn -0.4913 -0.6326 0.5987
vn -0.4913 0.6326 0.5987
vn -0.2254 0.9565 0.1850
vn -0.7400 -0.2890 0.6073
vn -0.3658 0.8810 0.3002
vn -0.6825 -0.4696 0.5601
vn -0.4918 0.7715 0.4036
vn -0.5987 -0.6326 0.4913
vn -0.5987 0.6326 0.4913
vn -0.4918 -0.7715 0.4036
vn -0.6825 0.4696 0.5601
vn -0.3658 -0.8810 0.3002
vn -0.7400 0.2890 0.6073
vn -0.2254 -0.9566 0.1850
vn -0.7693 0.0975 0.6314
vn -0.0761 0.9951 0.0625
vn -0.0761 -0.9951 0.0625
vn -0.7693 -0.0975 0.6314
vn -0.7786 0.4696 0.4162
vn -0.4173 -0.8810 0.2231
vn -0.8443 0.2890 0.4513
vn -0.2571 -0.9565 0.1374
vn -0.8777 0.0975 0.4691
vn -0.0869 0.9951 0.0464
vn -0.0869 -0.9951 0.0464
vn -0.8777 -0.0975 0.4691
vn -0.2571 0.9565 0.1374
vn -0.8443 -0.2890 0.4513
vn -0.4173 0.8810 0.2230
vn -0.7786 -0.4696 0.4162
vn -0.5611 0.7715 0.2999
vn -0.6831 -0.6326 0.3651
vn -0.6831 0.6326 0.3651
vn -0.5611 -0.7715 0.2999
vn -0.9161 -0.2890 0.2779
vn -0.4528 0.8810 0.1374
vn -0.8448 -0.4696 0.2563
vn -0.6088 0.7715 0.1847
vn -0.7412 -0.6326 0.2248
vn -0.7412 0.6326 0.2248
vn -0.6088 -0.7715 0.1847
vn -0.8448 0.4696 0.2563
vn -0.4528 -0.8810 0.1374
vn -0.9161 0.2890 0.2779
vn -0.2790 -0.9565 0.0846
vn -0.9524 0.0975 0.2889
vn -0.0942 0.9951 0.0286
vn -0.0942 -0.9951 0.0286
vn -0.9524 -0.0975 0.2889
vn -0.2790 0.9565 0.0846
vn -0.4709 -0.8810 0.0464
vn -0.9527 0.2890 0.0938
vn -0.2902 -0.9565 0.0286
vn -0.9904 0.0975 0.0975
vn -0.0980 0.9951 0.0097
vn -0.0980 -0.9951 0.0097
vn -0.9904 -0.0975 0.0976
vn -0.2902 0.9565 0.0286
vn -0.9527 -0.2890 0.0938
vn -0.4709 0.8810 0.0464
vn -0.8786 -0.4696 0.0865
vn -0.6332 0.7715 0.0624
vn -0.7708 -0.6326 0.0759
vn -0.7708 0.6326 0.0759
vn -0.6332 -0.7715 0.0624
vn -0.8786 0.4696 0.0865
vn -0.8786 -0.4696 -0.0865
vn -0.6332 0.7715 -0.0624
vn -0.7708 -0.6326 -0.0759
vn -0.7708 0.6326 -0.0759
vn -0.6332 -0.7715 -0.0624
vn -0.8786 0.4696 -0.0865
vn -0.4709 -0.8810 -0.0464
vn -0.9527 0.2890 -0.0938
vn -0.2902 -0.9565 -0.0286
vn -0.9904 0.0975 -0.0975
vn -0.0980 0.9951 -0.0097
vn -0.0980 -0.9951 -0.0097
vn -0.9904 -0.0975 -0.0976
vn -0.2902 0.9565 -0.0286
vn -0.9527 -0.2890 -0.0938
vn -0.4709 0.8810 -0.0464
vn -0.2790 -0.9565 -0.0846
vn -0.9524 0.0975 -0.2889
vn -0.0942 0.9951 -0.0286
vn -0.0942 -0.9951 -0.0286
vn -0.9524 -0.0975 -0.2889
vn -0.2790 0.9565 -0.0846
vn -0.9161 -0.2890 -0.2779
vn -0.4528 0.8810 -0.1374
vn -0.8448 -0.4696 -0.2563
vn -0.6088 0.7715 -0.1847
vn -0.7412 -0.6326 -0.2248
vn -0.7412 0.6326 -0.2248
vn -0.6088 -0.7715 -0.1847
vn -0.8448 0.4696 -0.2563
vn -0.4528 -0.8810 -0.1374
vn -0.9161 0.2890 -0.2779
vn -0.5611 0.7715 -0.2999
vn -0.6831 -0.6326 -0.3651
vn -0.6831 0.6326 -0.3651
vn -0.5611 -0.7715 -0.2999
vn -0.7786 0.4696 -0.4162
vn -0.4173 -0.8810 -0.2231
vn -0.8443 0.2890 -0.4513
vn -0.2571 -0.9565 -0.1374
vn -0.8777 0.0975 -0.4691
vn -0.0869 0.9951 -0.0464
vn -0.0869 -0.9951 -0.0464
vn -0.8777 -0.0975 -0.4691
vn -0.2571 0.9565 -0.1374
vn -0.8443 -0.2890 -0.4513
vn -0.4173 0.8810 -0.2231
vn -0.7786 -0.4696 -0.4162
vn -0.7693 0.0975 -0.6314
vn -0.0761 0.9951 -0.0625
vn -0.0761 -0.9951 -0.0625
vn -0.7693 -0.0975 -0.6314
vn -0.2254 0.9565 -0.1850
vn -0.7400 -0.2890 -0.6073
vn -0.3658 0.8810 -0.3002
vn -0.6825 -0.4696 -0.5601
vn -0.4918 0.7715 -0.4036
vn -0.5987 -0.6326 -0.4913
vn -0.5987 0.6326 -0.4913
vn -0.4918 -0.7715 -0.4036
vn -0.6825 0.4696 -0.5601
vn -0.3658 -0.8810 -0.3002
vn -0.7400 0.2890 -0.6073
vn -0.2254 -0.9565 -0.1850
vn -0.4913 -0.6326 -0.5987
vn -0.4913 0.6326 -0.5987
vn -0.4036 -0.7715 -0.4918
vn -0.5601 0.4696 -0.6825
vn -0.3002 -0.8810 -0.3658
vn -0.6073 0.2890 -0.7400
vn -0.1850 -0.9565 -0.2254
vn -0.6314 0.0975 -0.7693
vn -0.0625 0.9951 -0.0761
vn -0.0625 -0.9951 -0.0761
vn -0.6314 -0.0975 -0.7693
vn -0.1850 0.9565 -0.2254
vn -0.6073 -0.2890 -0.7400
vn -0.3002 0.8810 -0.3658
vn -0.5601 -0.4696 -0.6825
vn -0.4036 0.7715 -0.4918
vn -0.0464 0.9951 -0.0869
vn -0.0464 -0.9951 -0.0869
vn -0.4691 -0.0975 -0.8777
vn -0.1374 0.9565 -0.2571
vn -0.4513 -0.2890 -0.8443
vn -0.2230 0.8810 -0.4173
vn -0.4162 -0.4696 -0.7786
vn -0.2999 0.7715 -0.5611
vn -0.3651 -0.6326 -0.6831
vn -0.3651 0.6326 -0.6831
vn -0.2999 -0.7715 -0.5611
vn -0.4162 0.4696 -0.7786
vn -0.2230 -0.8810 -0.4173
vn -0.4513 0.2890 -0.8443
vn -0.1374 -0.9565 -0.2571
vn -0.4691 0.0975 -0.8777
vn -0.2248 0.6326 -0.7412
vn -0.1847 -0.7715 -0.6088
vn -0.2563 0.4696 -0.8448
vn -0.1374 -0.8810 -0.4528
vn -0.2779 0.2890 -0.9161
vn -0.0846 -0.9565 -0.2790
vn -0.2889 0.0975 -0.9524
vn -0.0286 0.9951 -0.0942
vn -0.0286 -0.9951 -0.0942
vn -0.2889 -0.0975 -0.9524
vn -0.0846 0.9565 -0.2790
vn -0.2779 -0.2890 -0.9161
vn -0.1374 0.8810 -0.4528
vn -0.2563 -0.4696 -0.8448
vn -0.1847 0.7715 -0.6088
vn -0.2248 -0.6326 -0.7412
vn -0.0976 -0.0975 -0.9904
vn -0.0286 0.9565 -0.2902
vn -0.0938 -0.2890 -0.9527
vn -0.0464 0.8810 -0.4709
vn -0.0865 -0.4696 -0.8786
vn -0.0624 0.7715 -0.6332
vn -0.0759 -0.6326 -0.7708
vn -0.0759 0.6326 -0.7708
vn -0.0624 -0.7715 -0.6332
vn -0.0865 0.4696 -0.8786
vn -0.0464 -0.8810 -0.4709
vn -0.0938 0.2890 -0.9527
vn -0.0286 -0.9565 -0.2902
vn -0.0976 0.0975 -0.9904
vn -0.0097 0.9951 -0.0980
vn -0.0097 -0.9951 -0.0980
vn 0.0975 -0.0975 -0.9904
vn 0.0975 0.0976 -0.9904
vn 0.2231 -0.8810 -0.4173
vn 0.2230 0.8810 -0.4173
vn 0.2254 -0.9565 -0.1850
vn 0.4173 -0.8810 0.2231
vn 0.2571 -0.9565 0.1374
vn 0.2571 0.9566 0.1374
vn 0.4173 0.8810 0.2230
vn -0.0976 -0.0975 0.9904
vn -0.0975 0.0975 0.9904
vn -0.2231 0.8810 0.4173
vn -0.2231 -0.8810 0.4173
vn -0.2254 -0.9565 0.1850
vn -0.4173 -0.8810 0.2230
vn -0.9904 0.0975 0.0976
vn -0.9904 -0.0975 0.0975
vn -0.9904 0.0975 -0.0976
vn -0.9904 -0.0975 -0.0975
vt 0.514892 0.108806
vt 0.538763 0.102838
vt 0.538763 0.114774
vt 0.705859 0.102838
vt 0.681989 0.114774
vt 0.681989 0.102838
vt 0.849085 0.102838
vt 0.872956 0.114774
vt 0.849085 0.114774
vt 0.658118 0.114774
vt 0.658118 0.102838
vt 0.825214 0.102838
vt 0.825214 0.114774
vt 0.634247 0.114774
vt 0.634247 0.102838
vt 0.801343 0.102838
vt 0.801343 0.114774
vt 0.610376 0.102838
vt 0.610376 0.114774
vt 0.777472 0.114774
vt 0.777472 0.102838
vt 0.586505 0.114774
vt 0.586505 0.102838
vt 0.753601 0.102838
vt 0.753601 0.114774
vt 0.562634 0.114774
vt 0.562634 0.102838
vt 0.729730 0.102838
vt 0.729730 0.114774
vt 0.705859 0.114774
vt 0.872956 0.102838
vt 0.896827 0.108806
vt 0.538763 0.126709
vt 0.705859 0.126709
vt 0.896827 0.120742
vt 0.872956 0.126709
vt 0.514892 0.120742
vt 0.681989 0.126709
vt 0.849085 0.126709
vt 0.658118 0.126709
vt 0.825214 0.126709
vt 0.634247 0.126709
vt 0.801343 0.126709
vt 0.610376 0.126709
vt 0.777472 0.126709
vt 0.586505 0.126709
vt 0.753601 0.126709
vt 0.562634 0.126709
vt 0.729730 0.126709
vt 0.801343 0.138645
vt 0.634247 0.138645
vt 0.610376 0.138645
vt 0.777472 0.138645
vt 0.586505 0.138645
vt 0.753601 0.138645
vt 0.562634 0.138645
vt 0.729730 0.138645
vt 0.538763 0.138645
vt 0.705859 0.138645
vt 0.896827 0.132677
vt 0.872956 0.138645
vt 0.514892 0.132677
vt 0.681989 0.138645
vt 0.849085 0.138645
vt 0.658118 0.138645
vt 0.825214 0.138645
vt 0.729730 0.150580
vt 0.705859 0.150580
vt 0.896827 0.144613
vt 0.872956 0.150580
vt 0.514892 0.144613
vt 0.538763 0.150580
vt 0.681989 0.150580
vt 0.849085 0.150580
vt 0.658118 0.150580
vt 0.825214 0.150580
vt 0.634247 0.150580
vt 0.801343 0.150580
vt 0.610376 0.150580
vt 0.777472 0.150580
vt 0.586505 0.150580
vt 0.753601 0.150580
vt 0.562634 0.150580
vt 0.610376 0.162516
vt 0.801343 0.162516
vt 0.777472 0.162516
vt 0.586505 0.162516
vt 0.753601 0.162516
vt 0.562634 0.162516
vt 0.729730 0.162516
vt 0.538763 0.162516
vt 0.705859 0.162516
vt 0.896827 0.156548
vt 0.872956 0.162516
vt 0.514892 0.156548
vt 0.681989 0.162516
vt 0.849085 0.162516
vt 0.658118 0.162516
vt 0.825214 0.162516
vt 0.634247 0.162516
vt 0.514892 0.168483
vt 0.538763 0.174451
vt 0.681989 0.174451
vt 0.849085 0.174451
vt 0.658118 0.174451
vt 0.825214 0.174451
vt 0.634247 0.174451
vt 0.801343 0.174451
vt 0.610376 0.174451
vt 0.777472 0.174451
vt 0.586505 0.174451
vt 0.753601 0.174451
vt 0.562634 0.174451
vt 0.729730 0.174451
vt 0.705859 0.174451
vt 0.896827 0.168483
vt 0.872956 0.174451
vt 0.610376 0.186387
vt 0.586505 0.186387
vt 0.753601 0.186387
vt 0.562634 0.186387
vt 0.729730 0.186387
vt 0.538763 0.186387
vt 0.705859 0.186387
vt 0.896827 0.180419
vt 0.872956 0.186387
vt 0.514892 0.180419
vt 0.681989 0.186387
vt 0.849085 0.186387
vt 0.658118 0.186387
vt 0.825214 0.186387
vt 0.634247 0.186387
vt 0.801343 0.186387
vt 0.777472 0.186387
vt 0.849085 0.198322
vt 0.658118 0.198322
vt 0.825214 0.198322
vt 0.634247 0.198322
vt 0.801343 0.198322
vt 0.610376 0.198322
vt 0.777472 0.198322
vt 0.586505 0.198322
vt 0.753601 0.198322
vt 0.562634 0.198322
vt 0.729730 0.198322
vt 0.538763 0.198322
vt 0.705859 0.198322
vt 0.896827 0.192354
vt 0.872956 0.198322
vt 0.514892 0.192354
vt 0.681989 0.198322
vt 0.753601 0.210257
vt 0.562634 0.210257
vt 0.729730 0.210257
vt 0.538763 0.210257
vt 0.705859 0.210257
vt 0.896827 0.204290
vt 0.872956 0.210257
vt 0.514892 0.204290
vt 0.681989 0.210257
vt 0.849085 0.210257
vt 0.658118 0.210257
vt 0.825214 0.210257
vt 0.634247 0.210257
vt 0.801343 0.210257
vt 0.610376 0.210257
vt 0.777472 0.210257
vt 0.586505 0.210257
vt 0.658118 0.222193
vt 0.825214 0.222193
vt 0.634247 0.222193
vt 0.801343 0.222193
vt 0.610376 0.222193
vt 0.777472 0.222193
vt 0.586505 0.222193
vt 0.753601 0.222193
vt 0.562634 0.222193
vt 0.729730 0.222193
vt 0.538763 0.222193
vt 0.705859 0.222193
vt 0.896827 0.216225
vt 0.872956 0.222193
vt 0.514892 0.216225
vt 0.681989 0.222193
vt 0.849085 0.222193
vt 0.586505 0.234128
vt 0.562634 0.234128
vt 0.753601 0.234128
vt 0.729730 0.234128
vt 0.538763 0.234128
vt 0.705859 0.234128
vt 0.896827 0.228161
vt 0.872956 0.234128
vt 0.514892 0.228161
vt 0.681989 0.234128
vt 0.849085 0.234128
vt 0.658118 0.234128
vt 0.825214 0.234128
vt 0.634247 0.234128
vt 0.801343 0.234128
vt 0.610376 0.234128
vt 0.777472 0.234128
vt 0.825214 0.246064
vt 0.658118 0.246064
vt 0.634247 0.246064
vt 0.801343 0.246064
vt 0.610376 0.246064
vt 0.777472 0.246064
vt 0.586505 0.246064
vt 0.753601 0.246064
vt 0.562634 0.246064
vt 0.729730 0.246064
vt 0.538763 0.246064
vt 0.705859 0.246064
vt 0.896827 0.240096
vt 0.872956 0.246064
vt 0.514892 0.240096
vt 0.681989 0.246064
vt 0.849085 0.246064
vt 0.753601 0.257999
vt 0.729730 0.257999
vt 0.538763 0.257999
vt 0.705859 0.257999
vt 0.896827 0.252032
vt 0.872956 0.257999
vt 0.514892 0.252032
vt 0.681989 0.257999
vt 0.849085 0.257999
vt 0.658118 0.257999
vt 0.825214 0.257999
vt 0.634247 0.257999
vt 0.801343 0.257999
vt 0.610376 0.257999
vt 0.777472 0.257999
vt 0.586505 0.257999
vt 0.562634 0.257999
vt 0.658118 0.269935
vt 0.634247 0.269935
vt 0.801343 0.269935
vt 0.610376 0.269935
vt 0.777472 0.269935
vt 0.586505 0.269935
vt 0.753601 0.269935
vt 0.562634 0.269935
vt 0.729730 0.269935
vt 0.538763 0.269935
vt 0.705859 0.269935
vt 0.896827 0.263967
vt 0.872956 0.269935
vt 0.514892 0.263967
vt 0.681989 0.269935
vt 0.849085 0.269935
vt 0.825214 0.269935
vt 0.562634 0.281870
vt 0.538763 0.281870
vt 0.729730 0.281870
vt 0.705859 0.281870
vt 0.896827 0.275903
vt 0.872956 0.281870
vt 0.514892 0.275903
vt 0.681989 0.281870
vt 0.849085 0.281870
vt 0.658118 0.281870
vt 0.825214 0.281870
vt 0.634247 0.281870
vt 0.801343 0.281870
vt 0.610376 0.281870
vt 0.777472 0.281870
vt 0.586505 0.281870
vt 0.753601 0.281870
vt 0.610376 0.293806
vt 0.801343 0.293806
vt 0.777472 0.293806
vt 0.586505 0.293806
vt 0.753601 0.293806
vt 0.562634 0.293806
vt 0.729730 0.293806
vt 0.538763 0.293806
vt 0.705859 0.293806
vt 0.896827 0.287838
vt 0.872956 0.293806
vt 0.514892 0.287838
vt 0.681989 0.293806
vt 0.849085 0.293806
vt 0.658118 0.293806
vt 0.825214 0.293806
vt 0.634247 0.293806
vt 0.896827 0.299773
vt 0.872956 0.305741
vt 0.514892 0.299773
vt 0.538763 0.305741
vt 0.681989 0.305741
vt 0.849085 0.305741
vt 0.658118 0.305741
vt 0.825214 0.305741
vt 0.634247 0.305741
vt 0.801343 0.305741
vt 0.610376 0.305741
vt 0.777472 0.305741
vt 0.586505 0.305741
vt 0.753601 0.305741
vt 0.562634 0.305741
vt 0.729730 0.305741
vt 0.705859 0.305741
vt 0.801343 0.317677
vt 0.777472 0.317677
vt 0.610376 0.317677
vt 0.586505 0.317677
vt 0.753601 0.317677
vt 0.562634 0.317677
vt 0.729730 0.317677
vt 0.538763 0.317677
vt 0.705859 0.317677
vt 0.896827 0.311709
vt 0.872956 0.317677
vt 0.514892 0.311709
vt 0.681989 0.317677
vt 0.849085 0.317677
vt 0.658118 0.317677
vt 0.825214 0.317677
vt 0.634247 0.317677
vt 0.681989 0.329612
vt 0.849085 0.329612
vt 0.658118 0.329612
vt 0.825214 0.329612
vt 0.634247 0.329612
vt 0.801343 0.329612
vt 0.610376 0.329612
vt 0.777472 0.329612
vt 0.586505 0.329612
vt 0.753601 0.329612
vt 0.562634 0.329612
vt 0.729730 0.329612
vt 0.538763 0.329612
vt 0.705859 0.329612
vt 0.896827 0.323644
vt 0.872956 0.329612
vt 0.514892 0.323644
vt 0.610376 0.341547
vt 0.586505 0.341547
vt 0.753601 0.341547
vt 0.562634 0.341547
vt 0.729730 0.341547
vt 0.538763 0.341547
vt 0.705859 0.341547
vt 0.896827 0.335580
vt 0.872956 0.341547
vt 0.514892 0.335580
vt 0.681989 0.341547
vt 0.849085 0.341547
vt 0.658118 0.341547
vt 0.825214 0.341547
vt 0.634247 0.341547
vt 0.801343 0.341547
vt 0.777472 0.341547
vt 0.872956 0.353483
vt 0.849085 0.353483
vt 0.658118 0.353483
vt 0.825214 0.353483
vt 0.634247 0.353483
vt 0.801343 0.353483
vt 0.610376 0.353483
vt 0.777472 0.353483
vt 0.586505 0.353483
vt 0.753601 0.353483
vt 0.562634 0.353483
vt 0.729730 0.353483
vt 0.538763 0.353483
vt 0.705859 0.353483
vt 0.896827 0.347515
vt 0.514892 0.347515
vt 0.681989 0.353483
vt 0.753601 0.365418
vt 0.562634 0.365418
vt 0.729730 0.365418
vt 0.538763 0.365418
vt 0.705859 0.365418
vt 0.896827 0.359451
vt 0.872956 0.365418
vt 0.514892 0.359451
vt 0.681989 0.365418
vt 0.849085 0.365418
vt 0.658118 0.365418
vt 0.825214 0.365418
vt 0.634247 0.365418
vt 0.801343 0.365418
vt 0.610376 0.365418
vt 0.777472 0.365418
vt 0.586505 0.365418
vt 0.658118 0.377354
vt 0.849085 0.377354
vt 0.825214 0.377354
vt 0.634247 0.377354
vt 0.801343 0.377354
vt 0.610376 0.377354
vt 0.777472 0.377354
vt 0.586505 0.377354
vt 0.753601 0.377354
vt 0.562634 0.377354
vt 0.729730 0.377354
vt 0.538763 0.377354
vt 0.705859 0.377354
vt 0.896827 0.371386
vt 0.872956 0.377354
vt 0.514892 0.371386
vt 0.681989 0.377354
vt 0.562634 0.389289
vt 0.753601 0.389289
vt 0.729730 0.389289
vt 0.538763 0.389289
vt 0.705859 0.389289
vt 0.896827 0.383322
vt 0.872956 0.389289
vt 0.514892 0.383322
vt 0.681989 0.389289
vt 0.849085 0.389289
vt 0.658118 0.389289
vt 0.825214 0.389289
vt 0.634247 0.389289
vt 0.801343 0.389289
vt 0.610376 0.389289
vt 0.777472 0.389289
vt 0.586505 0.389289
vt 0.634247 0.007355
vt 0.658118 0.019290
vt 0.634247 0.019290
vt 0.825214 0.007355
vt 0.801343 0.019290
vt 0.801343 0.007355
vt 0.610376 0.019290
vt 0.610376 0.007355
vt 0.777472 0.007355
vt 0.777472 0.019290
vt 0.586505 0.007355
vt 0.586505 0.019290
vt 0.753601 0.019290
vt 0.753601 0.007355
vt 0.562634 0.019290
vt 0.562634 0.007355
vt 0.729730 0.007355
vt 0.729730 0.019290
vt 0.538763 0.019290
vt 0.538763 0.007355
vt 0.705859 0.007355
vt 0.705859 0.019290
vt 0.872956 0.007355
vt 0.896827 0.013323
vt 0.872956 0.019290
vt 0.514892 0.013323
vt 0.681989 0.019290
vt 0.681989 0.007355
vt 0.849085 0.007355
vt 0.849085 0.019290
vt 0.658118 0.007355
vt 0.825214 0.019290
vt 0.538763 0.031226
vt 0.729730 0.031226
vt 0.705859 0.031226
vt 0.896827 0.025258
vt 0.872956 0.031226
vt 0.514892 0.025258
vt 0.681989 0.031226
vt 0.849085 0.031226
vt 0.658118 0.031226
vt 0.825214 0.031226
vt 0.634247 0.031226
vt 0.801343 0.031226
vt 0.610376 0.031226
vt 0.777472 0.031226
vt 0.586505 0.031226
vt 0.753601 0.031226
vt 0.562634 0.031226
vt 0.801343 0.043161
vt 0.610376 0.043161
vt 0.777472 0.043161
vt 0.586505 0.043161
vt 0.753601 0.043161
vt 0.562634 0.043161
vt 0.729730 0.043161
vt 0.538763 0.043161
vt 0.705859 0.043161
vt 0.896827 0.037193
vt 0.872956 0.043161
vt 0.514892 0.037193
vt 0.681989 0.043161
vt 0.849085 0.043161
vt 0.658118 0.043161
vt 0.825214 0.043161
vt 0.634247 0.043161
vt 0.729730 0.055097
vt 0.705859 0.055097
vt 0.896827 0.049129
vt 0.872956 0.055097
vt 0.514892 0.049129
vt 0.538763 0.055097
vt 0.681989 0.055097
vt 0.849085 0.055097
vt 0.658118 0.055097
vt 0.825214 0.055097
vt 0.634247 0.055097
vt 0.801343 0.055097
vt 0.610376 0.055097
vt 0.777472 0.055097
vt 0.586505 0.055097
vt 0.753601 0.055097
vt 0.562634 0.055097
vt 0.610376 0.067032
vt 0.801343 0.067032
vt 0.777472 0.067032
vt 0.586505 0.067032
vt 0.753601 0.067032
vt 0.562634 0.067032
vt 0.729730 0.067032
vt 0.538763 0.067032
vt 0.705859 0.067032
vt 0.896827 0.061064
vt 0.872956 0.067032
vt 0.514892 0.061064
vt 0.681989 0.067032
vt 0.849085 0.067032
vt 0.658118 0.067032
vt 0.825214 0.067032
vt 0.634247 0.067032
vt 0.896827 0.073000
vt 0.872956 0.078968
vt 0.514892 0.073000
vt 0.538763 0.078968
vt 0.681989 0.078968
vt 0.849085 0.078968
vt 0.658118 0.078968
vt 0.825214 0.078968
vt 0.634247 0.078968
vt 0.801343 0.078968
vt 0.610376 0.078968
vt 0.777472 0.078968
vt 0.586505 0.078968
vt 0.753601 0.078968
vt 0.562634 0.078968
vt 0.729730 0.078968
vt 0.705859 0.078968
vt 0.801343 0.090903
vt 0.777472 0.090903
vt 0.610376 0.090903
vt 0.586505 0.090903
vt 0.753601 0.090903
vt 0.562634 0.090903
vt 0.729730 0.090903
vt 0.538763 0.090903
vt 0.705859 0.090903
vt 0.896827 0.084935
vt 0.872956 0.090903
vt 0.514892 0.084935
vt 0.681989 0.090903
vt 0.849085 0.090903
vt 0.658118 0.090903
vt 0.825214 0.090903
vt 0.634247 0.090903
vt 0.896827 0.096871
vt 0.514892 0.096871
s 0
usemtl マテリアル.001
f 486/187/85 660/188/85 199/189/85
f 182/190/86 193/191/86 183/192/86
f 653/193/87 185/194/87 186/195/87
f 183/192/88 194/196/88 656/197/88
f 179/198/89 186/195/89 187/199/89
f 656/197/90 195/200/90 184/201/90
f 654/202/91 187/199/91 188/203/91
f 657/204/92 195/200/92 196/205/92
f 654/202/93 189/206/93 180/207/93
f 657/204/94 197/208/94 658/209/94
f 655/210/95 189/206/95 190/211/95
f 658/209/96 198/212/96 659/213/96
f 181/214/97 190/211/97 191/215/97
f 659/213/98 199/189/98 660/188/98
f 181/214/99 192/216/99 182/190/99
f 652/217/100 260/218/100 185/194/100
f 198/212/101 214/219/101 199/189/101
f 191/215/102 207/220/102 192/216/102
f 185/194/103 260/221/103 200/222/103
f 486/223/104 199/189/104 214/219/104
f 192/216/105 208/224/105 193/191/105
f 185/194/106 201/225/106 186/195/106
f 193/191/107 209/226/107 194/196/107
f 186/195/108 202/227/108 187/199/108
f 195/200/109 209/226/109 210/228/109
f 187/199/110 203/229/110 188/203/110
f 196/205/111 210/228/111 211/230/111
f 188/203/112 204/231/112 189/206/112
f 197/208/113 211/230/113 212/232/113
f 189/206/114 205/233/114 190/211/114
f 198/212/115 212/232/115 213/234/115
f 191/215/116 205/233/116 206/235/116
f 202/227/117 218/236/117 203/229/117
f 211/230/118 225/237/118 226/238/118
f 203/229/119 219/239/119 204/231/119
f 212/232/120 226/238/120 227/240/120
f 204/231/121 220/241/121 205/233/121
f 213/234/122 227/240/122 228/242/122
f 206/235/123 220/241/123 221/243/123
f 214/219/124 228/242/124 229/244/124
f 207/220/125 221/243/125 222/245/125
f 200/222/126 260/246/126 215/247/126
f 486/248/127 214/219/127 229/244/127
f 207/220/128 223/249/128 208/224/128
f 200/222/129 216/250/129 201/225/129
f 208/224/130 224/251/130 209/226/130
f 201/225/131 217/252/131 202/227/131
f 210/228/132 224/251/132 225/237/132
f 222/245/133 236/253/133 237/254/133
f 215/247/134 260/255/134 230/256/134
f 486/257/135 229/244/135 244/258/135
f 222/245/136 238/259/136 223/249/136
f 215/247/137 231/260/137 216/250/137
f 223/249/138 239/261/138 224/251/138
f 216/250/139 232/262/139 217/252/139
f 225/237/140 239/261/140 240/263/140
f 217/252/141 233/264/141 218/236/141
f 225/237/142 241/265/142 226/238/142
f 219/239/143 233/264/143 234/266/143
f 227/240/144 241/265/144 242/267/144
f 219/239/145 235/268/145 220/241/145
f 228/242/146 242/267/146 243/269/146
f 221/243/147 235/268/147 236/253/147
f 229/244/148 243/269/148 244/258/148
f 240/263/149 256/270/149 241/265/149
f 234/266/150 248/271/150 249/272/150
f 242/267/151 256/270/151 257/273/151
f 234/266/152 250/274/152 235/268/152
f 242/267/153 258/275/153 243/269/153
f 236/253/154 250/274/154 251/276/154
f 243/269/155 259/277/155 244/258/155
f 237/254/156 251/276/156 252/278/156
f 230/256/157 260/279/157 245/280/157
f 486/281/158 244/258/158 259/277/158
f 237/254/159 253/282/159 238/259/159
f 231/260/160 245/280/160 246/283/160
f 238/259/161 254/284/161 239/261/161
f 232/262/162 246/283/162 247/285/162
f 240/263/163 254/284/163 255/286/163
f 232/262/164 248/271/164 233/264/164
f 486/287/165 259/277/165 275/288/165
f 252/278/166 269/289/166 253/282/166
f 245/280/167 262/290/167 246/283/167
f 253/282/168 270/291/168 254/284/168
f 246/283/169 263/292/169 247/285/169
f 255/286/170 270/291/170 271/293/170
f 247/285/171 264/294/171 248/271/171
f 255/286/172 272/295/172 256/270/172
f 249/272/173 264/294/173 265/296/173
f 257/273/174 272/295/174 273/297/174
f 249/272/175 266/298/175 250/274/175
f 258/275/176 273/297/176 274/299/176
f 251/276/177 266/298/177 267/300/177
f 259/277/178 274/299/178 275/288/178
f 252/278/179 267/300/179 268/301/179
f 245/280/180 260/302/180 261/303/180
f 273/297/181 287/304/181 288/305/181
f 265/296/182 281/306/182 266/298/182
f 273/297/183 289/307/183 274/299/183
f 267/300/184 281/306/184 282/308/184
f 274/299/185 290/309/185 275/288/185
f 268/301/186 282/308/186 283/310/186
f 261/303/187 260/311/187 276/312/187
f 486/313/188 275/288/188 290/309/188
f 268/301/189 284/314/189 269/289/189
f 261/303/190 277/315/190 262/290/190
f 269/289/191 285/316/191 270/291/191
f 263/292/192 277/315/192 278/317/192
f 271/293/193 285/316/193 286/318/193
f 263/292/194 279/319/194 264/294/194
f 271/293/195 287/304/195 272/295/195
f 265/296/196 279/319/196 280/320/196
f 276/312/197 292/321/197 277/315/197
f 284/314/198 300/322/198 285/316/198
f 277/315/199 293/323/199 278/317/199
f 286/318/200 300/322/200 301/324/200
f 278/317/201 294/325/201 279/319/201
f 286/318/202 302/326/202 287/304/202
f 280/320/203 294/325/203 295/327/203
f 288/305/204 302/326/204 303/328/204
f 280/320/205 296/329/205 281/306/205
f 289/307/206 303/328/206 304/330/206
f 282/308/207 296/329/207 297/331/207
f 289/307/208 305/332/208 290/309/208
f 283/310/209 297/331/209 298/333/209
f 276/312/210 260/334/210 291/335/210
f 486/336/211 290/309/211 305/332/211
f 283/310/212 299/337/212 284/314/212
f 295/327/213 311/338/213 296/329/213
f 303/328/214 319/339/214 304/330/214
f 297/331/215 311/338/215 312/340/215
f 304/330/216 320/341/216 305/332/216
f 298/333/217 312/340/217 313/342/217
f 291/335/218 260/343/218 306/344/218
f 486/345/219 305/332/219 320/341/219
f 298/333/220 314/346/220 299/337/220
f 292/321/221 306/344/221 307/347/221
f 299/337/222 315/348/222 300/322/222
f 293/323/223 307/347/223 308/349/223
f 301/324/224 315/348/224 316/350/224
f 293/323/225 309/351/225 294/325/225
f 301/324/226 317/352/226 302/326/226
f 295/327/227 309/351/227 310/353/227
f 303/328/228 317/352/228 318/354/228
f 314/346/229 330/355/229 315/348/229
f 307/347/230 323/356/230 308/349/230
f 316/350/231 330/355/231 331/357/231
f 308/349/232 324/358/232 309/351/232
f 316/350/233 332/359/233 317/352/233
f 310/353/234 324/358/234 325/360/234
f 318/354/235 332/359/235 333/361/235
f 310/353/236 326/362/236 311/338/236
f 319/339/237 333/361/237 334/363/237
f 312/340/238 326/362/238 327/364/238
f 319/339/239 335/365/239 320/341/239
f 313/342/240 327/364/240 328/366/240
f 306/344/241 260/367/241 321/368/241
f 486/369/242 320/341/242 335/365/242
f 313/342/243 329/370/243 314/346/243
f 306/344/244 322/371/244 307/347/244
f 334/363/245 348/372/245 349/373/245
f 327/364/246 341/374/246 342/375/246
f 335/365/247 349/373/247 350/376/247
f 328/366/248 342/375/248 343/377/248
f 321/368/249 260/378/249 336/379/249
f 486/380/250 335/365/250 350/376/250
f 328/366/251 344/381/251 329/370/251
f 321/368/252 337/382/252 322/371/252
f 329/370/253 345/383/253 330/355/253
f 322/371/254 338/384/254 323/356/254
f 331/357/255 345/383/255 346/385/255
f 323/356/256 339/386/256 324/358/256
f 331/357/257 347/387/257 332/359/257
f 325/360/258 339/386/258 340/388/258
f 333/361/259 347/387/259 348/372/259
f 325/360/260 341/374/260 326/362/260
f 337/382/261 353/389/261 338/384/261
f 346/385/262 360/390/262 361/391/262
f 338/384/263 354/392/263 339/386/263
f 346/385/264 362/393/264 347/387/264
f 340/388/265 354/392/265 355/394/265
f 348/372/266 362/393/266 363/395/266
f 340/388/267 356/396/267 341/374/267
f 349/373/268 363/395/268 364/397/268
f 342/375/269 356/396/269 357/398/269
f 350/376/270 364/397/270 365/399/270
f 343/377/271 357/398/271 358/400/271
f 336/379/272 260/401/272 351/402/272
f 486/403/273 350/376/273 365/399/273
f 343/377/274 359/404/274 344/381/274
f 336/379/275 352/405/275 337/382/275
f 344/381/276 360/390/276 345/383/276
f 357/398/277 371/406/277 372/407/277
f 364/397/278 380/408/278 365/399/278
f 358/400/279 372/407/279 373/409/279
f 351/402/280 260/410/280 366/411/280
f 486/412/281 365/399/281 380/408/281
f 358/400/282 374/413/282 359/404/282
f 352/405/283 366/411/283 367/414/283
f 359/404/284 375/415/284 360/390/284
f 353/389/285 367/414/285 368/416/285
f 361/391/286 375/415/286 376/417/286
f 353/389/287 369/418/287 354/392/287
f 361/391/288 377/419/288 362/393/288
f 355/394/289 369/418/289 370/420/289
f 363/395/290 377/419/290 378/421/290
f 355/394/291 371/406/291 356/396/291
f 363/395/292 379/422/292 364/397/292
f 376/417/293 390/423/293 391/424/293
f 368/416/294 384/425/294 369/418/294
f 376/417/295 392/426/295 377/419/295
f 370/420/296 384/425/296 385/427/296
f 378/421/297 392/426/297 393/428/297
f 370/420/298 386/429/298 371/406/298
f 379/422/299 393/428/299 394/430/299
f 372/407/300 386/429/300 387/431/300
f 380/408/301 394/430/301 395/432/301
f 373/409/302 387/431/302 388/433/302
f 366/411/303 260/434/303 381/435/303
f 486/436/304 380/408/304 395/432/304
f 373/409/305 389/437/305 374/413/305
f 366/411/306 382/438/306 367/414/306
f 374/413/307 390/423/307 375/415/307
f 367/414/308 383/439/308 368/416/308
f 395/432/309 409/440/309 410/441/309
f 388/433/310 402/442/310 403/443/310
f 381/435/311 260/444/311 396/445/311
f 486/446/312 395/432/312 410/441/312
f 388/433/313 404/447/313 389/437/313
f 381/435/314 397/448/314 382/438/314
f 389/437/315 405/449/315 390/423/315
f 382/438/316 398/450/316 383/439/316
f 391/424/317 405/449/317 406/451/317
f 383/439/318 399/452/318 384/425/318
f 391/424/319 407/453/319 392/426/319
f 385/427/320 399/452/320 400/454/320
f 393/428/321 407/453/321 408/455/321
f 385/427/322 401/456/322 386/429/322
f 394/430/323 408/455/323 409/440/323
f 387/431/324 401/456/324 402/442/324
f 406/451/325 422/457/325 407/453/325
f 400/454/326 414/458/326 415/459/326
f 408/455/327 422/457/327 423/460/327
f 400/454/328 416/461/328 401/456/328
f 409/440/329 423/460/329 424/462/329
f 402/442/330 416/461/330 417/463/330
f 409/440/331 425/464/331 410/441/331
f 403/443/332 417/463/332 418/465/332
f 396/445/333 260/466/333 411/467/333
f 486/468/334 410/441/334 425/464/334
f 403/443/335 419/469/335 404/447/335
f 397/448/336 411/467/336 412/470/336
f 404/447/337 420/471/337 405/449/337
f 397/448/338 413/472/338 398/450/338
f 406/451/339 420/471/339 421/473/339
f 398/450/340 414/458/340 399/452/340
f 411/467/341 260/474/341 426/475/341
f 486/476/342 425/464/342 440/477/342
f 418/465/343 434/478/343 419/469/343
f 412/470/344 426/475/344 427/479/344
f 419/469/345 435/480/345 420/471/345
f 413/472/346 427/479/346 428/481/346
f 421/473/347 435/480/347 436/482/347
f 413/472/348 429/483/348 414/458/348
f 421/473/349 437/484/349 422/457/349
f 415/459/350 429/483/350 430/485/350
f 423/460/351 437/484/351 438/486/351
f 415/459/352 431/487/352 416/461/352
f 423/460/353 439/488/353 424/462/353
f 417/463/354 431/487/354 432/489/354
f 424/462/355 440/477/355 425/464/355
f 418/465/356 432/489/356 433/490/356
f 430/485/357 444/491/357 445/492/357
f 438/486/358 452/493/358 453/494/358
f 430/485/359 446/495/359 431/487/359
f 439/488/360 453/494/360 454/496/360
f 432/489/361 446/495/361 447/497/361
f 439/488/362 455/498/362 440/477/362
f 433/490/363 447/497/363 448/499/363
f 426/475/364 260/500/364 441/501/364
f 486/502/365 440/477/365 455/498/365
f 433/490/366 449/503/366 434/478/366
f 427/479/367 441/501/367 442/504/367
f 434/478/368 450/505/368 435/480/368
f 427/479/369 443/506/369 428/481/369
f 436/482/370 450/505/370 451/507/370
f 428/481/371 444/491/371 429/483/371
f 436/482/372 452/493/372 437/484/372
f 448/499/373 464/508/373 449/503/373
f 441/501/374 457/509/374 442/504/374
f 449/503/375 465/510/375 450/505/375
f 442/504/376 458/511/376 443/506/376
f 451/507/377 465/510/377 466/512/377
f 443/506/378 459/513/378 444/491/378
f 451/507/379 467/514/379 452/493/379
f 445/492/380 459/513/380 460/515/380
f 453/494/381 467/514/381 468/516/381
f 445/492/382 461/517/382 446/495/382
f 453/494/383 469/518/383 454/496/383
f 447/497/384 461/517/384 462/519/384
f 454/496/385 470/520/385 455/498/385
f 448/499/386 462/519/386 463/521/386
f 441/501/387 260/522/387 456/523/387
f 486/524/388 455/498/388 470/520/388
f 468/516/389 482/525/389 483/526/389
f 460/515/390 476/527/390 461/517/390
f 468/516/391 484/528/391 469/518/391
f 462/519/392 476/527/392 477/529/392
f 470/520/393 484/528/393 485/530/393
f 463/521/394 477/529/394 478/531/394
f 456/523/395 260/532/395 471/533/395
f 486/534/396 470/520/396 485/530/396
f 463/521/397 479/535/397 464/508/397
f 456/523/398 472/536/398 457/509/398
f 464/508/399 480/537/399 465/510/399
f 458/511/400 472/536/400 473/538/400
f 466/512/401 480/537/401 481/539/401
f 458/511/402 474/540/402 459/513/402
f 466/512/403 482/525/403 467/514/403
f 460/515/404 474/540/404 475/541/404
f 472/536/405 487/542/405 488/543/405
f 479/535/406 496/544/406 480/537/406
f 473/538/407 488/543/407 489/545/407
f 481/539/408 496/544/408 497/546/408
f 473/538/409 490/547/409 474/540/409
f 481/539/410 498/548/410 482/525/410
f 475/541/411 490/547/411 491/549/411
f 483/526/412 498/548/412 499/550/412
f 475/541/413 492/551/413 476/527/413
f 483/526/414 500/552/414 484/528/414
f 477/529/415 492/551/415 493/553/415
f 484/528/416 501/554/416 485/530/416
f 478/531/417 493/553/417 494/555/417
f 471/533/418 260/556/418 487/542/418
f 486/557/419 485/530/419 501/554/419
f 478/531/420 495/558/420 479/535/420
f 491/549/421 507/559/421 492/551/421
f 499/550/422 515/560/422 500/552/422
f 493/553/423 507/559/423 508/561/423
f 501/554/424 515/560/424 516/562/424
f 494/555/425 508/561/425 509/563/425
f 487/542/426 260/564/426 502/565/426
f 486/566/427 501/554/427 516/562/427
f 494/555/428 510/567/428 495/558/428
f 487/542/429 503/568/429 488/543/429
f 495/558/430 511/569/430 496/544/430
f 488/543/431 504/570/431 489/545/431
f 497/546/432 511/569/432 512/571/432
f 489/545/433 505/572/433 490/547/433
f 497/546/434 513/573/434 498/548/434
f 491/549/435 505/572/435 506/574/435
f 499/550/436 513/573/436 514/575/436
f 510/567/437 526/576/437 511/569/437
f 504/570/438 518/577/438 519/578/438
f 512/571/439 526/576/439 527/579/439
f 504/570/440 520/580/440 505/572/440
f 512/571/441 528/581/441 513/573/441
f 506/574/442 520/580/442 521/582/442
f 514/575/443 528/581/443 529/583/443
f 506/574/444 522/584/444 507/559/444
f 514/575/445 530/585/445 515/560/445
f 508/561/446 522/584/446 523/586/446
f 516/562/447 530/585/447 531/587/447
f 509/563/448 523/586/448 524/588/448
f 502/565/449 260/589/449 517/590/449
f 486/591/450 516/562/450 531/587/450
f 509/563/451 525/592/451 510/567/451
f 502/565/452 518/577/452 503/568/452
f 529/583/453 545/593/453 530/585/453
f 523/586/454 537/594/454 538/595/454
f 531/587/455 545/593/455 546/596/455
f 524/588/456 538/595/456 539/597/456
f 517/590/457 260/598/457 532/599/457
f 486/600/458 531/587/458 546/596/458
f 524/588/459 540/601/459 525/592/459
f 517/590/460 533/602/460 518/577/460
f 525/592/461 541/603/461 526/576/461
f 519/578/462 533/602/462 534/604/462
f 527/579/463 541/603/463 542/605/463
f 519/578/464 535/606/464 520/580/464
f 527/579/465 543/607/465 528/581/465
f 521/582/466 535/606/466 536/608/466
f 529/583/467 543/607/467 544/609/467
f 521/582/468 537/594/468 522/584/468
f 542/610/469 556/611/469 557/612/469
f 534/613/470 550/614/470 535/615/470
f 542/610/471 558/616/471 543/617/471
f 536/618/472 550/614/472 551/619/472
f 544/620/473 558/616/473 559/621/473
f 536/618/474 552/622/474 537/623/474
f 544/620/475 560/624/475 545/625/475
f 538/626/476 552/622/476 553/627/476
f 545/625/477 561/628/477 546/629/477
f 539/630/478 553/627/478 554/631/478
f 532/632/479 260/633/479 547/634/479
f 486/635/480 546/629/480 561/628/480
f 539/630/481 555/636/481 540/637/481
f 533/638/482 547/634/482 548/639/482
f 540/637/483 556/611/483 541/640/483
f 534/613/484 548/639/484 549/641/484
f 560/624/485 576/642/485 561/628/485
f 554/631/486 568/643/486 569/644/486
f 547/634/487 260/645/487 562/646/487
f 486/647/488 561/628/488 576/642/488
f 554/631/489 570/648/489 555/636/489
f 548/639/490 562/646/490 563/649/490
f 555/636/491 571/650/491 556/611/491
f 549/641/492 563/649/492 564/651/492
f 557/612/493 571/650/493 572/652/493
f 549/641/494 565/653/494 550/614/494
f 557/612/495 573/654/495 558/616/495
f 551/619/496 565/653/496 566/655/496
f 559/621/497 573/654/497 574/656/497
f 551/619/498 567/657/498 552/622/498
f 559/621/499 575/658/499 560/624/499
f 553/627/500 567/657/500 568/643/500
f 564/651/501 580/659/501 565/653/501
f 572/652/502 588/660/502 573/654/502
f 566/655/503 580/659/503 581/661/503
f 574/656/504 588/660/504 589/662/504
f 566/655/505 582/663/505 567/657/505
f 574/656/506 590/664/506 575/658/506
f 568/643/507 582/663/507 583/665/507
f 576/642/508 590/664/508 591/666/508
f 569/644/509 583/665/509 584/667/509
f 562/646/510 260/668/510 577/669/510
f 486/670/511 576/642/511 591/666/511
f 569/644/512 585/671/512 570/648/512
f 562/646/513 578/672/513 563/649/513
f 570/648/514 586/673/514 571/650/514
f 564/651/515 578/672/515 579/674/515
f 572/652/516 586/673/516 587/675/516
f 584/667/517 598/676/517 599/677/517
f 577/669/518 260/678/518 592/679/518
f 486/680/519 591/666/519 606/681/519
f 584/667/520 600/682/520 585/671/520
f 577/669/521 593/683/521 578/672/521
f 585/671/522 601/684/522 586/673/522
f 579/674/523 593/683/523 594/685/523
f 587/675/524 601/684/524 602/686/524
f 579/674/525 595/687/525 580/659/525
f 587/675/526 603/688/526 588/660/526
f 581/661/527 595/687/527 596/689/527
f 589/662/528 603/688/528 604/690/528
f 581/661/529 597/691/529 582/663/529
f 589/662/530 605/692/530 590/664/530
f 583/665/531 597/691/531 598/676/531
f 590/664/532 606/681/532 591/666/532
f 602/686/533 618/693/533 603/688/533
f 596/689/534 610/694/534 611/695/534
f 604/690/535 618/693/535 619/696/535
f 596/689/536 612/697/536 597/691/536
f 604/690/537 620/698/537 605/692/537
f 598/676/538 612/697/538 613/699/538
f 606/681/539 620/698/539 621/700/539
f 599/677/540 613/699/540 614/701/540
f 592/679/541 260/702/541 607/703/541
f 486/704/542 606/681/542 621/700/542
f 599/677/543 615/705/543 600/682/543
f 592/679/544 608/706/544 593/683/544
f 600/682/545 616/707/545 601/684/545
f 594/685/546 608/706/546 609/708/546
f 602/686/547 616/707/547 617/709/547
f 594/685/548 610/694/548 595/687/548
f 607/703/549 260/710/549 622/711/549
f 486/712/550 621/700/550 636/713/550
f 614/701/551 630/714/551 615/705/551
f 608/706/552 622/711/552 623/715/552
f 615/705/553 631/716/553 616/707/553
f 609/708/554 623/715/554 624/717/554
f 617/709/555 631/716/555 632/718/555
f 609/708/556 625/719/556 610/694/556
f 617/709/557 633/720/557 618/693/557
f 611/695/558 625/719/558 626/721/558
f 619/696/559 633/720/559 634/722/559
f 611/695/560 627/723/560 612/697/560
f 619/696/561 635/724/561 620/698/561
f 613/699/562 627/723/562 628/725/562
f 620/698/563 636/713/563 621/700/563
f 614/701/564 628/725/564 629/726/564
f 626/721/565 640/727/565 641/728/565
f 634/722/566 648/729/566 649/730/566
f 626/721/567 642/731/567 627/723/567
f 634/722/568 650/732/568 635/724/568
f 628/725/569 642/731/569 643/733/569
f 636/713/570 650/732/570 651/734/570
f 629/726/571 643/733/571 644/735/571
f 622/711/572 260/736/572 637/737/572
f 486/738/573 636/713/573 651/734/573
f 629/726/574 645/739/574 630/714/574
f 622/711/575 638/740/575 623/715/575
f 630/714/576 646/741/576 631/716/576
f 624/717/577 638/740/577 639/742/577
f 632/718/578 646/741/578 647/743/578
f 624/717/579 640/727/579 625/719/579
f 632/718/580 648/729/580 633/720/580
f 644/735/581 183/192/581 645/739/581
f 637/737/582 653/193/582 638/740/582
f 645/739/583 656/197/583 646/741/583
f 639/742/584 653/193/584 179/198/584
f 646/741/585 184/201/585 647/743/585
f 640/727/586 179/198/586 654/202/586
f 647/743/587 657/204/587 648/729/587
f 641/728/588 654/202/588 180/207/588
f 649/730/589 657/204/589 658/209/589
f 642/731/590 180/207/590 655/210/590
f 649/730/591 659/213/591 650/732/591
f 643/733/592 655/210/592 181/214/592
f 650/732/593 660/188/593 651/734/593
f 644/735/594 181/214/594 182/190/594
f 637/737/595 260/744/595 652/217/595
f 486/745/596 651/734/596 660/188/596
f 182/190/597 192/216/597 193/191/597
f 653/193/87 652/217/87 185/194/87
f 183/192/88 193/191/88 194/196/88
f 179/198/89 653/193/89 186/195/89
f 656/197/90 194/196/90 195/200/90
f 654/202/91 179/198/91 187/199/91
f 657/204/92 184/201/92 195/200/92
f 654/202/93 188/203/93 189/206/93
f 657/204/94 196/205/94 197/208/94
f 655/210/95 180/207/95 189/206/95
f 658/209/96 197/208/96 198/212/96
f 181/214/97 655/210/97 190/211/97
f 659/213/98 198/212/98 199/189/98
f 181/214/598 191/215/598 192/216/598
f 198/212/101 213/234/101 214/219/101
f 191/215/102 206/235/102 207/220/102
f 192/216/105 207/220/105 208/224/105
f 185/194/106 200/222/106 201/225/106
f 193/191/107 208/224/107 209/226/107
f 186/195/108 201/225/108 202/227/108
f 195/200/109 194/196/109 209/226/109
f 187/199/110 202/227/110 203/229/110
f 196/205/111 195/200/111 210/228/111
f 188/203/112 203/229/112 204/231/112
f 197/208/113 196/205/113 211/230/113
f 189/206/114 204/231/114 205/233/114
f 198/212/115 197/208/115 212/232/115
f 191/215/116 190/211/116 205/233/116
f 202/227/117 217/252/117 218/236/117
f 211/230/118 210/228/118 225/237/118
f 203/229/119 218/236/119 219/239/119
f 212/232/120 211/230/120 226/238/120
f 204/231/121 219/239/121 220/241/121
f 213/234/599 212/232/599 227/240/599
f 206/235/123 205/233/123 220/241/123
f 214/219/124 213/234/124 228/242/124
f 207/220/125 206/235/125 221/243/125
f 207/220/128 222/245/128 223/249/128
f 200/222/129 215/247/129 216/250/129
f 208/224/130 223/249/130 224/251/130
f 201/225/600 216/250/600 217/252/600
f 210/228/132 209/226/132 224/251/132
f 222/245/133 221/243/133 236/253/133
f 222/245/136 237/254/136 238/259/136
f 215/247/137 230/256/137 231/260/137
f 223/249/138 238/259/138 239/261/138
f 216/250/139 231/260/139 232/262/139
f 225/237/140 224/251/140 239/261/140
f 217/252/141 232/262/141 233/264/141
f 225/237/142 240/263/142 241/265/142
f 219/239/143 218/236/143 233/264/143
f 227/240/144 226/238/144 241/265/144
f 219/239/145 234/266/145 235/268/145
f 228/242/146 227/240/146 242/267/146
f 221/243/147 220/241/147 235/268/147
f 229/244/148 228/242/148 243/269/148
f 240/263/149 255/286/149 256/270/149
f 234/266/150 233/264/150 248/271/150
f 242/267/151 241/265/151 256/270/151
f 234/266/152 249/272/152 250/274/152
f 242/267/153 257/273/153 258/275/153
f 236/253/154 235/268/154 250/274/154
f 243/269/601 258/275/601 259/277/601
f 237/254/156 236/253/156 251/276/156
f 237/254/159 252/278/159 253/282/159
f 231/260/160 230/256/160 245/280/160
f 238/259/161 253/282/161 254/284/161
f 232/262/162 231/260/162 246/283/162
f 240/263/163 239/261/163 254/284/163
f 232/262/164 247/285/164 248/271/164
f 252/278/166 268/301/166 269/289/166
f 245/280/167 261/303/167 262/290/167
f 253/282/168 269/289/168 270/291/168
f 246/283/169 262/290/169 263/292/169
f 255/286/170 254/284/170 270/291/170
f 247/285/171 263/292/171 264/294/171
f 255/286/172 271/293/172 272/295/172
f 249/272/173 248/271/173 264/294/173
f 257/273/174 256/270/174 272/295/174
f 249/272/175 265/296/175 266/298/175
f 258/275/176 257/273/176 273/297/176
f 251/276/177 250/274/177 266/298/177
f 259/277/178 258/275/178 274/299/178
f 252/278/179 251/276/179 267/300/179
f 273/297/181 272/295/181 287/304/181
f 265/296/182 280/320/182 281/306/182
f 273/297/183 288/305/183 289/307/183
f 267/300/184 266/298/184 281/306/184
f 274/299/185 289/307/185 290/309/185
f 268/301/186 267/300/186 282/308/186
f 268/301/189 283/310/189 284/314/189
f 261/303/190 276/312/190 277/315/190
f 269/289/191 284/314/191 285/316/191
f 263/292/192 262/290/192 277/315/192
f 271/293/193 270/291/193 285/316/193
f 263/292/194 278/317/194 279/319/194
f 271/293/195 286/318/195 287/304/195
f 265/296/196 264/294/196 279/319/196
f 276/312/197 291/335/197 292/321/197
f 284/314/198 299/337/198 300/322/198
f 277/315/199 292/321/199 293/323/199
f 286/318/200 285/316/200 300/322/200
f 278/317/201 293/323/201 294/325/201
f 286/318/202 301/324/202 302/326/202
f 280/320/203 279/319/203 294/325/203
f 288/305/204 287/304/204 302/326/204
f 280/320/205 295/327/205 296/329/205
f 289/307/206 288/305/206 303/328/206
f 282/308/207 281/306/207 296/329/207
f 289/307/208 304/330/208 305/332/208
f 283/310/209 282/308/209 297/331/209
f 283/310/212 298/333/212 299/337/212
f 295/327/213 310/353/213 311/338/213
f 303/328/214 318/354/214 319/339/214
f 297/331/215 296/329/215 311/338/215
f 304/330/216 319/339/216 320/341/216
f 298/333/217 297/331/217 312/340/217
f 298/333/220 313/342/220 314/346/220
f 292/321/221 291/335/221 306/344/221
f 299/337/222 314/346/222 315/348/222
f 293/323/223 292/321/223 307/347/223
f 301/324/224 300/322/224 315/348/224
f 293/323/225 308/349/225 309/351/225
f 301/324/226 316/350/226 317/352/226
f 295/327/227 294/325/227 309/351/227
f 303/328/228 302/326/228 317/352/228
f 314/346/229 329/370/229 330/355/229
f 307/347/230 322/371/230 323/356/230
f 316/350/231 315/348/231 330/355/231
f 308/349/232 323/356/232 324/358/232
f 316/350/233 331/357/233 332/359/233
f 310/353/234 309/351/234 324/358/234
f 318/354/235 317/352/235 332/359/235
f 310/353/236 325/360/236 326/362/236
f 319/339/237 318/354/237 333/361/237
f 312/340/238 311/338/238 326/362/238
f 319/339/239 334/363/239 335/365/239
f 313/342/240 312/340/240 327/364/240
f 313/342/243 328/366/243 329/370/243
f 306/344/244 321/368/244 322/371/244
f 334/363/602 333/361/602 348/372/602
f 327/364/246 326/362/246 341/374/246
f 335/365/603 334/363/603 349/373/603
f 328/366/248 327/364/248 342/375/248
f 328/366/251 343/377/251 344/381/251
f 321/368/604 336/379/604 337/382/604
f 329/370/253 344/381/253 345/383/253
f 322/371/605 337/382/605 338/384/605
f 331/357/255 330/355/255 345/383/255
f 323/356/256 338/384/256 339/386/256
f 331/357/257 346/385/257 347/387/257
f 325/360/258 324/358/258 339/386/258
f 333/361/259 332/359/259 347/387/259
f 325/360/260 340/388/260 341/374/260
f 337/382/261 352/405/261 353/389/261
f 346/385/262 345/383/262 360/390/262
f 338/384/263 353/389/263 354/392/263
f 346/385/264 361/391/264 362/393/264
f 340/388/265 339/386/265 354/392/265
f 348/372/266 347/387/266 362/393/266
f 340/388/267 355/394/267 356/396/267
f 349/373/268 348/372/268 363/395/268
f 342/375/269 341/374/269 356/396/269
f 350/376/270 349/373/270 364/397/270
f 343/377/271 342/375/271 357/398/271
f 343/377/274 358/400/274 359/404/274
f 336/379/275 351/402/275 352/405/275
f 344/381/276 359/404/276 360/390/276
f 357/398/277 356/396/277 371/406/277
f 364/397/278 379/422/278 380/408/278
f 358/400/279 357/398/279 372/407/279
f 358/400/282 373/409/282 374/413/282
f 352/405/283 351/402/283 366/411/283
f 359/404/284 374/413/284 375/415/284
f 353/389/285 352/405/285 367/414/285
f 361/391/286 360/390/286 375/415/286
f 353/389/287 368/416/287 369/418/287
f 361/391/288 376/417/288 377/419/288
f 355/394/289 354/392/289 369/418/289
f 363/395/290 362/393/290 377/419/290
f 355/394/291 370/420/291 371/406/291
f 363/395/292 378/421/292 379/422/292
f 376/417/293 375/415/293 390/423/293
f 368/416/294 383/439/294 384/425/294
f 376/417/295 391/424/295 392/426/295
f 370/420/296 369/418/296 384/425/296
f 378/421/297 377/419/297 392/426/297
f 370/420/298 385/427/298 386/429/298
f 379/422/299 378/421/299 393/428/299
f 372/407/300 371/406/300 386/429/300
f 380/408/301 379/422/301 394/430/301
f 373/409/302 372/407/302 387/431/302
f 373/409/305 388/433/305 389/437/305
f 366/411/306 381/435/306 382/438/306
f 374/413/307 389/437/307 390/423/307
f 367/414/308 382/438/308 383/439/308
f 395/432/309 394/430/309 409/440/309
f 388/433/310 387/431/310 402/442/310
f 388/433/313 403/443/313 404/447/313
f 381/435/314 396/445/314 397/448/314
f 389/437/315 404/447/315 405/449/315
f 382/438/316 397/448/316 398/450/316
f 391/424/317 390/423/317 405/449/317
f 383/439/318 398/450/318 399/452/318
f 391/424/319 406/451/319 407/453/319
f 385/427/320 384/425/320 399/452/320
f 393/428/321 392/426/321 407/453/321
f 385/427/322 400/454/322 401/456/322
f 394/430/323 393/428/323 408/455/323
f 387/431/324 386/429/324 401/456/324
f 406/451/325 421/473/325 422/457/325
f 400/454/326 399/452/326 414/458/326
f 408/455/327 407/453/327 422/457/327
f 400/454/328 415/459/328 416/461/328
f 409/440/329 408/455/329 423/460/329
f 402/442/330 401/456/330 416/461/330
f 409/440/331 424/462/331 425/464/331
f 403/443/332 402/442/332 417/463/332
f 403/443/335 418/465/335 419/469/335
f 397/448/336 396/445/336 411/467/336
f 404/447/337 419/469/337 420/471/337
f 397/448/338 412/470/338 413/472/338
f 406/451/339 405/449/339 420/471/339
f 398/450/340 413/472/340 414/458/340
f 418/465/606 433/490/606 434/478/606
f 412/470/344 411/467/344 426/475/344
f 419/469/345 434/478/345 435/480/345
f 413/472/346 412/470/346 427/479/346
f 421/473/347 420/471/347 435/480/347
f 413/472/348 428/481/348 429/483/348
f 421/473/349 436/482/349 437/484/349
f 415/459/350 414/458/350 429/483/350
f 423/460/351 422/457/351 437/484/351
f 415/459/352 430/485/352 431/487/352
f 423/460/353 438/486/353 439/488/353
f 417/463/354 416/461/354 431/487/354
f 424/462/355 439/488/355 440/477/355
f 418/465/607 417/463/607 432/489/607
f 430/485/357 429/483/357 444/491/357
f 438/486/358 437/484/358 452/493/358
f 430/485/359 445/492/359 446/495/359
f 439/488/360 438/486/360 453/494/360
f 432/489/361 431/487/361 446/495/361
f 439/488/362 454/496/362 455/498/362
f 433/490/363 432/489/363 447/497/363
f 433/490/366 448/499/366 449/503/366
f 427/479/367 426/475/367 441/501/367
f 434/478/368 449/503/368 450/505/368
f 427/479/369 442/504/369 443/506/369
f 436/482/370 435/480/370 450/505/370
f 428/481/371 443/506/371 444/491/371
f 436/482/372 451/507/372 452/493/372
f 448/499/373 463/521/373 464/508/373
f 441/501/374 456/523/374 457/509/374
f 449/503/375 464/508/375 465/510/375
f 442/504/608 457/509/608 458/511/608
f 451/507/377 450/505/377 465/510/377
f 443/506/378 458/511/378 459/513/378
f 451/507/379 466/512/379 467/514/379
f 445/492/380 444/491/380 459/513/380
f 453/494/381 452/493/381 467/514/381
f 445/492/382 460/515/382 461/517/382
f 453/494/609 468/516/609 469/518/609
f 447/497/384 446/495/384 461/517/384
f 454/496/385 469/518/385 470/520/385
f 448/499/386 447/497/386 462/519/386
f 468/516/389 467/514/389 482/525/389
f 460/515/390 475/541/390 476/527/390
f 468/516/391 483/526/391 484/528/391
f 462/519/392 461/517/392 476/527/392
f 470/520/393 469/518/393 484/528/393
f 463/521/394 462/519/394 477/529/394
f 463/521/397 478/531/397 479/535/397
f 456/523/398 471/533/398 472/536/398
f 464/508/399 479/535/399 480/537/399
f 458/511/400 457/509/400 472/536/400
f 466/512/401 465/510/401 480/537/401
f 458/511/402 473/538/402 474/540/402
f 466/512/403 481/539/403 482/525/403
f 460/515/404 459/513/404 474/540/404
f 472/536/405 471/533/405 487/542/405
f 479/535/406 495/558/406 496/544/406
f 473/538/407 472/536/407 488/543/407
f 481/539/408 480/537/408 496/544/408
f 473/538/409 489/545/409 490/547/409
f 481/539/410 497/546/410 498/548/410
f 475/541/411 474/540/411 490/547/411
f 483/526/412 482/525/412 498/548/412
f 475/541/413 491/549/413 492/551/413
f 483/526/414 499/550/414 500/552/414
f 477/529/415 476/527/415 492/551/415
f 484/528/610 500/552/610 501/554/610
f 478/531/417 477/529/417 493/553/417
f 478/531/420 494/555/420 495/558/420
f 491/549/421 506/574/421 507/559/421
f 499/550/611 514/575/611 515/560/611
f 493/553/423 492/551/423 507/559/423
f 501/554/424 500/552/424 515/560/424
f 494/555/425 493/553/425 508/561/425
f 494/555/428 509/563/428 510/567/428
f 487/542/429 502/565/429 503/568/429
f 495/558/430 510/567/430 511/569/430
f 488/543/431 503/568/431 504/570/431
f 497/546/432 496/544/432 511/569/432
f 489/545/433 504/570/433 505/572/433
f 497/546/434 512/571/434 513/573/434
f 491/549/435 490/547/435 505/572/435
f 499/550/436 498/548/436 513/573/436
f 510/567/437 525/592/437 526/576/437
f 504/570/438 503/568/438 518/577/438
f 512/571/439 511/569/439 526/576/439
f 504/570/440 519/578/440 520/580/440
f 512/571/441 527/579/441 528/581/441
f 506/574/442 505/572/442 520/580/442
f 514/575/443 513/573/443 528/581/443
f 506/574/444 521/582/444 522/584/444
f 514/575/445 529/583/445 530/585/445
f 508/561/446 507/559/446 522/584/446
f 516/562/447 515/560/447 530/585/447
f 509/563/448 508/561/448 523/586/448
f 509/563/451 524/588/451 525/592/451
f 502/565/452 517/590/452 518/577/452
f 529/583/453 544/609/453 545/593/453
f 523/586/454 522/584/454 537/594/454
f 531/587/455 530/585/455 545/593/455
f 524/588/612 523/586/612 538/595/612
f 524/588/613 539/597/613 540/601/613
f 517/590/460 532/599/460 533/602/460
f 525/592/461 540/601/461 541/603/461
f 519/578/462 518/577/462 533/602/462
f 527/579/463 526/576/463 541/603/463
f 519/578/464 534/604/464 535/606/464
f 527/579/465 542/605/465 543/607/465
f 521/582/466 520/580/466 535/606/466
f 529/583/467 528/581/467 543/607/467
f 521/582/468 536/608/468 537/594/468
f 542/610/469 541/640/469 556/611/469
f 534/613/470 549/641/470 550/614/470
f 542/610/471 557/612/471 558/616/471
f 536/618/472 535/615/472 550/614/472
f 544/620/473 543/617/473 558/616/473
f 536/618/474 551/619/474 552/622/474
f 544/620/475 559/621/475 560/624/475
f 538/626/476 537/623/476 552/622/476
f 545/625/477 560/624/477 561/628/477
f 539/630/614 538/626/614 553/627/614
f 539/630/615 554/631/615 555/636/615
f 533/638/482 532/632/482 547/634/482
f 540/637/483 555/636/483 556/611/483
f 534/613/484 533/638/484 548/639/484
f 560/624/485 575/658/485 576/642/485
f 554/631/486 553/627/486 568/643/486
f 554/631/489 569/644/489 570/648/489
f 548/639/490 547/634/490 562/646/490
f 555/636/491 570/648/491 571/650/491
f 549/641/492 548/639/492 563/649/492
f 557/612/493 556/611/493 571/650/493
f 549/641/494 564/651/494 565/653/494
f 557/612/495 572/652/495 573/654/495
f 551/619/496 550/614/496 565/653/496
f 559/621/497 558/616/497 573/654/497
f 551/619/498 566/655/498 567/657/498
f 559/621/499 574/656/499 575/658/499
f 553/627/500 552/622/500 567/657/500
f 564/651/501 579/674/501 580/659/501
f 572/652/502 587/675/502 588/660/502
f 566/655/503 565/653/503 580/659/503
f 574/656/504 573/654/504 588/660/504
f 566/655/505 581/661/505 582/663/505
f 574/656/506 589/662/506 590/664/506
f 568/643/507 567/657/507 582/663/507
f 576/642/508 575/658/508 590/664/508
f 569/644/509 568/643/509 583/665/509
f 569/644/512 584/667/512 585/671/512
f 562/646/513 577/669/513 578/672/513
f 570/648/514 585/671/514 586/673/514
f 564/651/515 563/649/515 578/672/515
f 572/652/516 571/650/516 586/673/516
f 584/667/517 583/665/517 598/676/517
f 584/667/520 599/677/520 600/682/520
f 577/669/521 592/679/521 593/683/521
f 585/671/522 600/682/522 601/684/522
f 579/674/523 578/672/523 593/683/523
f 587/675/524 586/673/524 601/684/524
f 579/674/525 594/685/525 595/687/525
f 587/675/526 602/686/526 603/688/526
f 581/661/527 580/659/527 595/687/527
f 589/662/528 588/660/528 603/688/528
f 581/661/529 596/689/529 597/691/529
f 589/662/530 604/690/530 605/692/530
f 583/665/531 582/663/531 597/691/531
f 590/664/532 605/692/532 606/681/532
f 602/686/533 617/709/533 618/693/533
f 596/689/534 595/687/534 610/694/534
f 604/690/535 603/688/535 618/693/535
f 596/689/536 611/695/536 612/697/536
f 604/690/537 619/696/537 620/698/537
f 598/676/538 597/691/538 612/697/538
f 606/681/539 605/692/539 620/698/539
f 599/677/540 598/676/540 613/699/540
f 599/677/543 614/701/543 615/705/543
f 592/679/544 607/703/544 608/706/544
f 600/682/545 615/705/545 616/707/545
f 594/685/546 593/683/546 608/706/546
f 602/686/547 601/684/547 616/707/547
f 594/685/548 609/708/548 610/694/548
f 614/701/551 629/726/551 630/714/551
f 608/706/552 607/703/552 622/711/552
f 615/705/553 630/714/553 631/716/553
f 609/708/554 608/706/554 623/715/554
f 617/709/555 616/707/555 631/716/555
f 609/708/556 624/717/556 625/719/556
f 617/709/557 632/718/557 633/720/557
f 611/695/558 610/694/558 625/719/558
f 619/696/559 618/693/559 633/720/559
f 611/695/560 626/721/560 627/723/560
f 619/696/561 634/722/561 635/724/561
f 613/699/562 612/697/562 627/723/562
f 620/698/563 635/724/563 636/713/563
f 614/701/564 613/699/564 628/725/564
f 626/721/565 625/719/565 640/727/565
f 634/722/566 633/720/566 648/729/566
f 626/721/567 641/728/567 642/731/567
f 634/722/568 649/730/568 650/732/568
f 628/725/569 627/723/569 642/731/569
f 636/713/570 635/724/570 650/732/570
f 629/726/571 628/725/571 643/733/571
f 629/726/574 644/735/574 645/739/574
f 622/711/575 637/737/575 638/740/575
f 630/714/576 645/739/576 646/741/576
f 624/717/577 623/715/577 638/740/577
f 632/718/578 631/716/578 646/741/578
f 624/717/579 639/742/579 640/727/579
f 632/718/580 647/743/580 648/729/580
f 644/735/581 182/190/581 183/192/581
f 637/737/582 652/217/582 653/193/582
f 645/739/583 183/192/583 656/197/583
f 639/742/584 638/740/584 653/193/584
f 646/741/585 656/197/585 184/201/585
f 640/727/586 639/742/586 179/198/586
f 647/743/587 184/201/587 657/204/587
f 641/728/588 640/727/588 654/202/588
f 649/730/589 648/729/589 657/204/589
f 642/731/590 641/728/590 180/207/590
f 649/730/591 658/209/591 659/213/591
f 643/733/592 642/731/592 655/210/592
f 650/732/593 659/213/593 660/188/593
f 644/735/594 643/733/594 181/214/594
