# Blender 4.4.1
# www.blender.org
mtllib enemy.mtl
o 立方体.001
v -0.657634 -0.406036 0.750417
v -0.657634 0.724659 0.750417
v -0.461784 -0.406036 -0.422018
v -0.461784 0.321267 -0.422018
v 0.565442 -0.406036 0.750417
v 0.565442 0.724659 0.750417
v 0.391038 -0.406036 -0.422018
v 0.391038 0.321267 -0.422018
v -0.636188 -0.406036 0.026671
v 0.565442 0.724659 0.026671
v -0.636188 0.724659 0.026671
v 0.565442 -0.406036 0.026671
v -0.035373 0.321267 -0.422018
v -0.248578 0.321267 -0.422018
v -0.355181 0.321267 -0.422018
v 0.177833 0.321267 -0.422018
v 0.284435 0.321267 -0.422018
v -0.657634 0.653990 0.750417
v 0.565442 0.653990 0.750417
v -0.046096 0.653990 0.720525
v -0.351865 0.653990 0.720525
v 0.259673 0.653990 0.720525
v -0.461784 -0.360580 -0.422018
v 0.565442 -0.335368 0.750417
v -0.046096 -0.335368 0.720525
v -0.351865 -0.335368 0.720525
v 0.259673 -0.335368 0.720525
v -0.657634 -0.335368 0.750417
v -0.408483 -0.406036 -0.422018
v -0.581191 0.724659 0.750417
v -0.581191 -0.406036 0.750417
v -0.581191 0.159311 0.720525
v -0.581191 0.441985 0.720525
v -0.581191 0.653990 0.720525
v -0.581191 -0.123362 0.720525
v -0.581191 -0.335368 0.720525
v 0.488999 -0.406036 0.750417
v 0.488999 0.724659 0.750417
v 0.488999 0.159311 0.720525
v 0.488999 0.441985 0.720525
v 0.488999 0.653990 0.720525
v 0.488999 -0.123362 0.720525
v 0.488999 -0.335368 0.720525
vn 0.3388 -0.3665 0.8665
vn -0.0000 0.7436 -0.6686
vn -0.0000 1.0000 -0.0000
vn -0.0000 -0.3896 0.9210
vn 0.3642 -0.0000 0.9313
vn 0.9321 -0.0000 -0.3623
vn -0.9996 -0.0000 -0.0296
vn -0.0000 -0.0000 1.0000
vn -0.0000 -0.0000 -1.0000
vn -0.0000 0.3896 0.9210
vn -0.9321 -0.0000 -0.3623
vn -0.0000 -1.0000 -0.0000
vn -0.3642 -0.0000 0.9313
vn -0.3388 -0.3665 0.8665
vn 1.0000 -0.0000 -0.0000
vn 0.3388 0.3665 0.8665
vn -0.3388 0.3665 0.8665
vt 0.500000 0.980216
vt 0.484509 0.995707
vt 0.484509 0.980216
vt 0.500000 0.608436
vt 0.561963 0.500000
vt 0.623927 0.500000
vt 0.515491 0.747854
vt 0.500000 0.747854
vt 0.484509 0.933744
vt 0.484509 0.871780
vt 0.376073 0.980216
vt 0.438037 0.980216
vt 0.500000 0.500000
vt 0.252146 0.608436
vt 0.252146 0.500000
vt 0.267637 0.004293
vt 0.484509 0.004293
vt 0.500000 0.143711
vt 0.252146 0.980216
vt 0.267637 0.995707
vt 0.252146 0.995707
vt 0.500000 0.438037
vt 0.500000 0.376073
vt 0.267637 0.871780
vt 0.267637 0.933744
vt 0.267637 0.252146
vt 0.252146 0.143711
vt 0.500000 0.252146
vt 0.252146 0.252146
vt 0.252146 0.267637
vt 0.267637 0.809817
vt 0.314110 0.763344
vt 0.376073 0.763345
vt 0.236656 0.747854
vt 0.019784 0.747854
vt 0.004293 0.608436
vt 0.004293 0.500000
vt 0.019784 0.500000
vt 0.267637 0.747854
vt 0.252146 0.763344
vt 0.252146 0.747854
vt 0.484509 0.747854
vt 0.500000 0.763344
vt 0.484509 0.763344
vt 0.500000 0.995707
vt 0.716872 0.500000
vt 0.747854 0.500000
vt 0.747854 0.608436
vt 0.530982 0.500000
vt 0.685890 0.500000
vt 0.747854 0.747854
vt 0.732363 0.747854
vt 0.484509 0.809817
vt 0.267637 0.980216
vt 0.314110 0.980216
vt 0.500000 0.004293
vt 0.252146 0.004293
vt 0.500000 0.469018
vt 0.500000 0.314110
vt 0.500000 0.283128
vt 0.267637 0.763344
vt 0.438037 0.763344
vt 0.004293 0.747854
s 0
usemtl マテリアル.002
f 30/1/1 18/2/1 34/3/1
f 10/4/2 16/5/2 13/6/2
f 38/7/3 6/8/3 10/4/3
f 30/1/4 21/9/4 20/10/4
f 32/11/5 33/12/5 18/2/5
f 8/13/6 12/14/6 7/15/6
f 28/16/7 18/17/7 11/18/7
f 31/19/8 28/20/8 1/21/8
f 16/22/9 7/15/9 13/23/9
f 25/24/10 26/25/10 31/19/10
f 23/26/11 9/27/11 4/28/11
f 3/29/9 23/26/9 29/30/9
f 27/31/8 42/32/8 39/33/8
f 37/34/12 31/35/12 9/36/12
f 9/36/12 3/37/12 29/38/12
f 24/39/8 37/40/8 5/41/8
f 39/33/13 42/32/13 24/39/13
f 19/42/14 38/43/14 41/44/14
f 19/42/15 24/39/15 12/14/15
f 30/1/8 2/45/8 18/2/8
f 15/46/2 4/47/2 11/48/2
f 11/48/2 10/4/2 13/6/2
f 10/4/2 8/13/2 17/49/2
f 10/4/2 17/49/2 16/5/2
f 14/50/2 15/46/2 11/48/2
f 13/6/2 14/50/2 11/48/2
f 10/4/3 11/48/3 38/7/3
f 11/48/3 2/51/3 30/52/3
f 11/48/3 30/52/3 38/7/3
f 41/44/4 38/43/4 22/53/4
f 38/43/4 30/1/4 20/10/4
f 22/53/4 38/43/4 20/10/4
f 30/1/4 34/3/4 21/9/4
f 33/12/5 34/3/5 18/2/5
f 18/2/5 28/20/5 32/11/5
f 28/20/5 36/54/5 35/55/5
f 28/20/5 35/55/5 32/11/5
f 8/13/6 10/4/6 12/14/6
f 18/17/7 2/56/7 11/18/7
f 11/18/7 9/27/7 28/16/7
f 9/27/7 1/57/7 28/16/7
f 31/19/16 36/54/16 28/20/16
f 17/58/9 8/13/9 7/15/9
f 7/15/9 29/30/9 13/23/9
f 29/30/9 23/26/9 14/59/9
f 13/23/9 29/30/9 14/59/9
f 23/26/9 4/28/9 15/60/9
f 23/26/9 15/60/9 14/59/9
f 17/58/9 7/15/9 16/22/9
f 26/25/10 36/54/10 31/19/10
f 31/19/10 37/40/10 25/24/10
f 37/40/10 43/61/10 27/31/10
f 37/40/10 27/31/10 25/24/10
f 23/26/11 3/29/11 9/27/11
f 9/27/11 11/18/11 4/28/11
f 21/9/8 34/3/8 33/12/8
f 21/9/8 33/12/8 32/11/8
f 20/10/8 21/9/8 32/11/8
f 35/55/8 36/54/8 26/25/8
f 20/10/8 32/11/8 25/24/8
f 32/11/8 35/55/8 26/25/8
f 25/24/8 32/11/8 26/25/8
f 40/62/8 41/44/8 22/53/8
f 22/53/8 20/10/8 39/33/8
f 39/33/8 20/10/8 25/24/8
f 27/31/8 43/61/8 42/32/8
f 25/24/8 27/31/8 39/33/8
f 40/62/8 22/53/8 39/33/8
f 9/36/12 12/14/12 37/34/12
f 12/14/12 5/41/12 37/34/12
f 31/35/12 1/63/12 9/36/12
f 29/38/12 7/15/12 12/14/12
f 12/14/12 9/36/12 29/38/12
f 24/39/17 43/61/17 37/40/17
f 24/39/13 19/42/13 39/33/13
f 19/42/13 41/44/13 40/62/13
f 19/42/13 40/62/13 39/33/13
f 42/32/13 43/61/13 24/39/13
f 19/42/8 6/8/8 38/43/8
f 24/39/15 5/41/15 12/14/15
f 12/14/15 10/4/15 19/42/15
f 10/4/15 6/8/15 19/42/15
