# Blender 4.4.1
# www.blender.org
mtllib goal.mtl
o 円柱
v 0.500000 0.695992 -0.101839
v 0.500000 -0.403908 -0.101839
v 0.519868 0.695992 -0.099882
v 0.519868 -0.403908 -0.099882
v 0.538972 0.695992 -0.094087
v 0.538972 -0.403908 -0.094087
v 0.556579 0.695992 -0.084676
v 0.556579 -0.403908 -0.084676
v 0.572011 0.695992 -0.072011
v 0.572011 -0.403908 -0.072011
v 0.584676 0.695992 -0.056579
v 0.584676 -0.403908 -0.056579
v 0.594087 0.695992 -0.038972
v 0.594087 -0.403908 -0.038972
v 0.599882 0.695992 -0.019868
v 0.599882 -0.403908 -0.019868
v 0.601839 0.695992 -0.000000
v 0.601839 -0.403908 -0.000000
v 0.599882 0.695992 0.019868
v 0.599882 -0.403908 0.019868
v 0.594087 0.695992 0.038972
v 0.594087 -0.403908 0.038972
v 0.584676 0.695992 0.056579
v 0.584676 -0.403908 0.056579
v 0.572011 0.695992 0.072011
v 0.572011 -0.403908 0.072011
v 0.556579 0.695992 0.084676
v 0.556579 -0.403908 0.084676
v 0.538972 0.695992 0.094087
v 0.538972 -0.403908 0.094087
v 0.519868 0.695992 0.099882
v 0.519868 -0.403908 0.099882
v 0.500000 0.695992 0.101839
v 0.500000 -0.403908 0.101839
v 0.480132 0.695992 0.099882
v 0.480132 -0.403908 0.099882
v 0.461028 0.695992 0.094087
v 0.461028 -0.403908 0.094087
v 0.443421 0.695992 0.084676
v 0.443421 -0.403908 0.084676
v 0.427989 0.695992 0.072011
v 0.427989 -0.403908 0.072011
v 0.415324 0.695992 0.056579
v 0.415324 -0.403908 0.056579
v 0.405913 0.695992 0.038972
v 0.405913 -0.403908 0.038972
v 0.400118 0.695992 0.019868
v 0.400118 -0.403908 0.019868
v 0.398161 0.695992 -0.000000
v 0.398161 -0.403908 -0.000000
v 0.400118 0.695992 -0.019868
v 0.400118 -0.403908 -0.019868
v 0.405913 0.695992 -0.038972
v 0.405913 -0.403908 -0.038972
v 0.415324 0.695992 -0.056579
v 0.415324 -0.403908 -0.056579
v 0.427989 0.695992 -0.072011
v 0.427989 -0.403908 -0.072011
v 0.443421 0.695992 -0.084676
v 0.443421 -0.403908 -0.084676
v 0.461028 0.695992 -0.094087
v 0.461028 -0.403908 -0.094087
v 0.480132 0.695992 -0.099882
v 0.480132 -0.403908 -0.099882
v 0.512350 0.680888 -0.005320
v 0.512350 -0.144540 -0.005320
v -0.563553 0.290790 -0.005320
v -0.563553 0.245558 -0.005320
vn -0.0980 -0.0000 0.9952
vn -0.2903 -0.0000 0.9569
vn -0.4714 -0.0000 0.8819
vn -0.6344 -0.0000 0.7730
vn -0.7730 -0.0000 0.6344
vn -0.8819 -0.0000 0.4714
vn -0.9569 -0.0000 0.2903
vn -0.9952 -0.0000 0.0980
vn -0.9952 -0.0000 -0.0980
vn -0.9569 -0.0000 -0.2903
vn -0.8819 -0.0000 -0.4714
vn -0.7730 -0.0000 -0.6344
vn -0.6344 -0.0000 -0.7730
vn -0.4714 -0.0000 -0.8819
vn -0.2903 -0.0000 -0.9569
vn -0.0980 -0.0000 -0.9952
vn 0.0980 -0.0000 -0.9952
vn 0.2903 -0.0000 -0.9569
vn 0.4714 -0.0000 -0.8819
vn 0.6344 -0.0000 -0.7730
vn 0.7730 -0.0000 -0.6344
vn 0.8819 -0.0000 -0.4714
vn 0.9569 -0.0000 -0.2903
vn 0.9952 -0.0000 -0.0980
vn 0.9952 -0.0000 0.0980
vn 0.9569 -0.0000 0.2903
vn 0.8819 -0.0000 0.4714
vn 0.7730 -0.0000 0.6344
vn 0.6344 -0.0000 0.7730
vn 0.4714 -0.0000 0.8819
vn -0.0000 1.0000 -0.0000
vn 0.2903 -0.0000 0.9569
vn 0.0980 -0.0000 0.9952
vn -0.0000 -1.0000 -0.0000
vn -0.0000 -0.0000 -1.0000
vt 0.992980 0.007020
vt 0.685123 0.026261
vt 0.685123 0.007020
vt 0.992980 0.026261
vt 0.685123 0.045503
vt 0.992980 0.045503
vt 0.685123 0.064744
vt 0.992980 0.064744
vt 0.685123 0.083985
vt 0.992980 0.083985
vt 0.685123 0.103226
vt 0.992980 0.103226
vt 0.685123 0.122467
vt 0.992980 0.122467
vt 0.685123 0.141708
vt 0.992980 0.141708
vt 0.685123 0.160949
vt 0.992980 0.160949
vt 0.685123 0.180190
vt 0.992980 0.180190
vt 0.685123 0.199431
vt 0.992980 0.199431
vt 0.685123 0.218672
vt 0.992980 0.218672
vt 0.685123 0.237913
vt 0.992980 0.237913
vt 0.685123 0.257154
vt 0.992980 0.257154
vt 0.685123 0.276395
vt 0.992980 0.276395
vt 0.685123 0.295636
vt 0.992980 0.295636
vt 0.685123 0.314877
vt 0.992980 0.314877
vt 0.685123 0.334118
vt 0.992980 0.334118
vt 0.685123 0.353360
vt 0.992980 0.353360
vt 0.685123 0.372601
vt 0.992980 0.372601
vt 0.685123 0.391842
vt 0.992980 0.391842
vt 0.685123 0.411083
vt 0.992980 0.411083
vt 0.685123 0.430324
vt 0.992980 0.430324
vt 0.685123 0.449565
vt 0.992980 0.449565
vt 0.685123 0.468806
vt 0.992980 0.468806
vt 0.685123 0.488047
vt 0.992980 0.488047
vt 0.685123 0.507288
vt 0.992980 0.507288
vt 0.685123 0.526529
vt 0.992980 0.526529
vt 0.685123 0.545770
vt 0.992980 0.545770
vt 0.685123 0.565011
vt 0.992980 0.565011
vt 0.685123 0.584252
vt 0.788378 0.704768
vt 0.762695 0.736062
vt 0.691114 0.714348
vt 0.992980 0.584252
vt 0.685123 0.603493
vt 0.992980 0.603493
vt 0.685123 0.622734
vt 0.696874 0.775178
vt 0.704206 0.849620
vt 0.778649 0.842289
vt 0.687145 0.704768
vt 0.685123 0.694599
vt 0.685123 0.684230
vt 0.687146 0.674060
vt 0.691113 0.664480
vt 0.696874 0.655859
vt 0.704206 0.648527
vt 0.712828 0.642766
vt 0.722407 0.638798
vt 0.753116 0.638798
vt 0.732577 0.636775
vt 0.742946 0.636775
vt 0.762695 0.642766
vt 0.784410 0.664480
vt 0.771317 0.648527
vt 0.778649 0.655859
vt 0.788378 0.674060
vt 0.790401 0.684230
vt 0.790401 0.694599
vt 0.784410 0.714348
vt 0.778649 0.722970
vt 0.771317 0.730302
vt 0.753116 0.740030
vt 0.742946 0.742053
vt 0.732577 0.742053
vt 0.722407 0.740030
vt 0.712828 0.736062
vt 0.704206 0.730302
vt 0.696874 0.722970
vt 0.992980 0.622734
vt 0.691114 0.783799
vt 0.687146 0.793379
vt 0.685123 0.803548
vt 0.685123 0.813917
vt 0.687145 0.824087
vt 0.691113 0.833667
vt 0.696874 0.842288
vt 0.712828 0.855381
vt 0.722407 0.859349
vt 0.732577 0.861372
vt 0.742946 0.861372
vt 0.753116 0.859349
vt 0.762695 0.855381
vt 0.771317 0.849621
vt 0.784410 0.833667
vt 0.788378 0.824087
vt 0.790401 0.813918
vt 0.790401 0.803549
vt 0.788378 0.793379
vt 0.784410 0.783799
vt 0.778649 0.775178
vt 0.771317 0.767846
vt 0.762696 0.762085
vt 0.753116 0.758117
vt 0.742946 0.756094
vt 0.732577 0.756094
vt 0.722407 0.758117
vt 0.712828 0.762085
vt 0.704206 0.767846
vt 0.671082 0.007020
vt 0.320856 0.872591
vt 0.007020 0.007020
vt 0.357246 0.872591
s 0
usemtl マテリアル.001
f 2/1/1 3/2/1 1/3/1
f 4/4/2 5/5/2 3/2/2
f 6/6/3 7/7/3 5/5/3
f 8/8/4 9/9/4 7/7/4
f 10/10/5 11/11/5 9/9/5
f 12/12/6 13/13/6 11/11/6
f 14/14/7 15/15/7 13/13/7
f 16/16/8 17/17/8 15/15/8
f 18/18/9 19/19/9 17/17/9
f 20/20/10 21/21/10 19/19/10
f 22/22/11 23/23/11 21/21/11
f 24/24/12 25/25/12 23/23/12
f 26/26/13 27/27/13 25/25/13
f 28/28/14 29/29/14 27/27/14
f 30/30/15 31/31/15 29/29/15
f 32/32/16 33/33/16 31/31/16
f 34/34/17 35/35/17 33/33/17
f 36/36/18 37/37/18 35/35/18
f 38/38/19 39/39/19 37/37/19
f 40/40/20 41/41/20 39/39/20
f 42/42/21 43/43/21 41/41/21
f 44/44/22 45/45/22 43/43/22
f 46/46/23 47/47/23 45/45/23
f 48/48/24 49/49/24 47/47/24
f 50/50/25 51/51/25 49/49/25
f 52/52/26 53/53/26 51/51/26
f 54/54/27 55/55/27 53/53/27
f 56/56/28 57/57/28 55/55/28
f 58/58/29 59/59/29 57/57/29
f 60/60/30 61/61/30 59/59/30
f 30/62/31 22/63/31 6/64/31
f 62/65/32 63/66/32 61/61/32
f 64/67/33 1/68/33 63/66/33
f 63/69/34 15/70/34 31/71/34
f 2/1/1 4/4/1 3/2/1
f 4/4/2 6/6/2 5/5/2
f 6/6/3 8/8/3 7/7/3
f 8/8/4 10/10/4 9/9/4
f 10/10/5 12/12/5 11/11/5
f 12/12/6 14/14/6 13/13/6
f 14/14/7 16/16/7 15/15/7
f 16/16/8 18/18/8 17/17/8
f 18/18/9 20/20/9 19/19/9
f 20/20/10 22/22/10 21/21/10
f 22/22/11 24/24/11 23/23/11
f 24/24/12 26/26/12 25/25/12
f 26/26/13 28/28/13 27/27/13
f 28/28/14 30/30/14 29/29/14
f 30/30/15 32/32/15 31/31/15
f 32/32/16 34/34/16 33/33/16
f 34/34/17 36/36/17 35/35/17
f 36/36/18 38/38/18 37/37/18
f 38/38/19 40/40/19 39/39/19
f 40/40/20 42/42/20 41/41/20
f 42/42/21 44/44/21 43/43/21
f 44/44/22 46/46/22 45/45/22
f 46/46/23 48/48/23 47/47/23
f 48/48/24 50/50/24 49/49/24
f 50/50/25 52/52/25 51/51/25
f 52/52/26 54/54/26 53/53/26
f 54/54/27 56/56/27 55/55/27
f 56/56/28 58/58/28 57/57/28
f 58/58/29 60/60/29 59/59/29
f 60/60/30 62/65/30 61/61/30
f 6/64/31 4/72/31 2/73/31
f 2/73/31 64/74/31 6/64/31
f 64/74/31 62/75/31 6/64/31
f 62/75/31 60/76/31 58/77/31
f 58/77/31 56/78/31 62/75/31
f 56/78/31 54/79/31 62/75/31
f 54/79/31 52/80/31 46/81/31
f 52/80/31 50/82/31 46/81/31
f 50/82/31 48/83/31 46/81/31
f 46/81/31 44/84/31 38/85/31
f 44/84/31 42/86/31 38/85/31
f 42/86/31 40/87/31 38/85/31
f 38/85/31 36/88/31 30/62/31
f 36/88/31 34/89/31 30/62/31
f 34/89/31 32/90/31 30/62/31
f 30/62/31 28/91/31 26/92/31
f 26/92/31 24/93/31 30/62/31
f 24/93/31 22/63/31 30/62/31
f 22/63/31 20/94/31 18/95/31
f 18/95/31 16/96/31 14/97/31
f 14/97/31 12/98/31 6/64/31
f 12/98/31 10/99/31 6/64/31
f 10/99/31 8/100/31 6/64/31
f 22/63/31 18/95/31 6/64/31
f 18/95/31 14/97/31 6/64/31
f 6/64/31 62/75/31 38/85/31
f 62/75/31 54/79/31 38/85/31
f 54/79/31 46/81/31 38/85/31
f 38/85/31 30/62/31 6/64/31
f 62/65/32 64/67/32 63/66/32
f 64/67/33 2/101/33 1/68/33
f 63/69/34 1/102/34 3/103/34
f 3/103/34 5/104/34 7/105/34
f 7/105/34 9/106/34 11/107/34
f 11/107/34 13/108/34 15/70/34
f 15/70/34 17/109/34 19/110/34
f 19/110/34 21/111/34 23/112/34
f 23/112/34 25/113/34 27/114/34
f 27/114/34 29/115/34 31/71/34
f 31/71/34 33/116/34 35/117/34
f 35/117/34 37/118/34 39/119/34
f 39/119/34 41/120/34 43/121/34
f 43/121/34 45/122/34 47/123/34
f 47/123/34 49/124/34 51/125/34
f 51/125/34 53/126/34 55/127/34
f 55/127/34 57/128/34 59/129/34
f 59/129/34 61/130/34 63/69/34
f 63/69/34 3/103/34 7/105/34
f 7/105/34 11/107/34 15/70/34
f 15/70/34 19/110/34 31/71/34
f 19/110/34 23/112/34 31/71/34
f 23/112/34 27/114/34 31/71/34
f 31/71/34 35/117/34 39/119/34
f 39/119/34 43/121/34 31/71/34
f 43/121/34 47/123/34 31/71/34
f 47/123/34 51/125/34 55/127/34
f 55/127/34 59/129/34 63/69/34
f 63/69/34 7/105/34 15/70/34
f 47/123/34 55/127/34 31/71/34
f 55/127/34 63/69/34 31/71/34
usemtl マテリアル
f 66/131/35 67/132/35 65/133/35
f 66/131/35 68/134/35 67/132/35
