# Blender 4.4.1
# www.blender.org
mtllib Collapse.mtl
o 立方体
v -0.493968 -0.217777 0.495468
v -0.495468 0.495468 0.495468
v -0.495468 -0.243521 -0.495468
v -0.495468 0.495468 -0.495468
v 0.495468 -0.246527 0.495468
v 0.495468 0.495468 0.495468
v 0.495468 -0.364408 -0.495468
v 0.495468 0.495468 -0.495468
v 0.005054 -0.132074 -0.495468
v 0.005054 0.495468 -0.495468
v 0.006554 -0.173886 0.495468
v 0.005054 0.495468 0.495468
v -0.495468 -0.182917 0.000000
v -0.495468 0.495468 0.000000
v 0.495468 -0.226152 0.000000
v 0.495468 0.495468 0.000000
v 0.005054 0.495468 0.000000
vn -1.0000 -0.0000 -0.0000
vn -0.0000 -0.0000 -1.0000
vn 1.0000 -0.0000 -0.0000
vn -0.0000 -0.0000 1.0000
vn -0.0000 1.0000 -0.0000
vn -1.0000 -0.0021 0.0029
vn 0.2158 -0.9692 0.1186
vn 0.0871 -0.9937 -0.0702
vn -0.1468 -0.9883 -0.0406
vn -0.4151 -0.8763 0.2445
vn -0.0431 -0.9885 -0.1450
vn -0.0435 -0.9971 0.0623
vt 0.449460 0.196950
vt 0.713378 0.389706
vt 0.524477 0.343778
vt 0.478816 0.419918
vt 0.476642 0.657821
vt 0.419363 0.475439
vt 0.355182 0.460247
vt 0.157160 0.580907
vt 0.284243 0.440739
vt 0.261377 0.336219
vt 0.004193 0.251178
vt 0.260806 0.174461
vt 0.233720 0.954907
vt 0.111735 0.744004
vt 0.275434 0.787781
vt 0.314243 0.631210
vt 0.442556 0.825806
vt 0.401991 0.995807
vt 0.713378 0.004194
vt 0.435897 0.004193
vt 0.713378 0.196950
vt 0.613290 0.541032
vt 0.068835 0.424585
vt 0.067900 0.911515
s 0
usemtl マテリアル
f 13/1/1 4/2/1 3/3/1
f 9/4/2 8/5/2 7/6/2
f 15/7/3 6/8/3 5/9/3
f 11/10/4 2/11/4 1/12/4
f 14/13/5 12/14/5 17/15/5
f 17/15/5 6/8/5 16/16/5
f 6/8/4 11/10/4 5/9/4
f 4/2/2 9/4/2 3/3/2
f 10/17/5 16/16/5 8/5/5
f 4/18/5 17/15/5 10/17/5
f 8/5/3 15/7/3 7/6/3
f 2/19/6 13/1/6 1/20/6
f 3/3/7 9/4/7 13/1/7
f 1/12/8 13/1/8 11/10/8
f 5/9/9 11/10/9 15/7/9
f 7/6/10 15/7/10 9/4/10
f 9/4/11 15/7/11 13/1/11
f 11/10/12 13/1/12 15/7/12
f 13/1/1 14/21/1 4/2/1
f 9/4/2 10/22/2 8/5/2
f 15/7/3 16/16/3 6/8/3
f 11/10/4 12/23/4 2/11/4
f 14/13/5 2/24/5 12/14/5
f 17/15/5 12/14/5 6/8/5
f 6/8/4 12/23/4 11/10/4
f 4/2/2 10/22/2 9/4/2
f 10/17/5 17/15/5 16/16/5
f 4/18/5 14/13/5 17/15/5
f 8/5/3 16/16/3 15/7/3
f 2/19/1 14/21/1 13/1/1
